<?xml version="1.0" encoding="UTF-8" standalone="no"?>
<!-- Created with Inkscape (http://www.inkscape.org/) -->

<svg
   xmlns:dc="http://purl.org/dc/elements/1.1/"
   xmlns:cc="http://creativecommons.org/ns#"
   xmlns:rdf="http://www.w3.org/1999/02/22-rdf-syntax-ns#"
   xmlns:svg="http://www.w3.org/2000/svg"
   xmlns="http://www.w3.org/2000/svg"
   xmlns:xlink="http://www.w3.org/1999/xlink"
   xmlns:sodipodi="http://sodipodi.sourceforge.net/DTD/sodipodi-0.dtd"
   xmlns:inkscape="http://www.inkscape.org/namespaces/inkscape"
   width="32"
   height="32"
   id="svg2"
   version="1.1"
   inkscape:version="0.48.4 r9939"
   sodipodi:docname="ic_dialog_info.svg">
  <defs
     id="defs4">
    <clipPath
       id="SVGID_175_">
      <rect
         height="96"
         width="96"
         y="8.9899998"
         x="488.00601"
         id="use1188" />
    </clipPath>
    <clipPath
       id="SVGID_167_">
      <use
         height="1052.3622"
         width="744.09448"
         y="0"
         x="0"
         style="overflow:visible"
         xlink:href="#SVGID_166_"
         overflow="visible"
         id="use1136" />
    </clipPath>
    <clipPath
       id="clipPath4213">
      <use
         height="1052.3622"
         width="744.09448"
         y="0"
         x="0"
         style="overflow:visible"
         xlink:href="#SVGID_166_"
         overflow="visible"
         id="use4215" />
    </clipPath>
    <clipPath
       id="clipPath4217">
      <use
         height="1052.3622"
         width="744.09448"
         y="0"
         x="0"
         style="overflow:visible"
         xlink:href="#SVGID_166_"
         overflow="visible"
         id="use4219" />
    </clipPath>
  </defs>
  <sodipodi:namedview
     id="base"
     pagecolor="#ffffff"
     bordercolor="#666666"
     borderopacity="1.0"
     inkscape:pageopacity="0"
     inkscape:pageshadow="2"
     inkscape:zoom="16"
     inkscape:cx="7.382407"
     inkscape:cy="6.5801326"
     inkscape:document-units="px"
     inkscape:current-layer="layer1"
     showgrid="false"
     inkscape:window-width="1917"
     inkscape:window-height="1264"
     inkscape:window-x="569"
     inkscape:window-y="63"
     inkscape:window-maximized="0"
     showguides="true"
     inkscape:guide-bbox="true" />
  <metadata
     id="metadata7">
    <rdf:RDF>
      <cc:Work
         rdf:about="">
        <dc:format>image/svg+xml</dc:format>
        <dc:type
           rdf:resource="http://purl.org/dc/dcmitype/StillImage" />
        <dc:title />
      </cc:Work>
    </rdf:RDF>
  </metadata>
  <g
     inkscape:label="Layer 1"
     inkscape:groupmode="layer"
     id="layer1"
     transform="translate(0,-1020.3622)">
    <g
       transform="matrix(0.47898073,0,0,0.47898073,-128.60404,898.25721)"
       id="g1130"
       style="fill:#333333;opacity:0.6;fill-opacity:1">
      <defs
         id="defs1132">
        <rect
           id="SVGID_166_"
           x="253.89999"
           y="240.33099"
           width="96"
           height="96" />
      </defs>
      <clipPath
         id="clipPath4224">
        <use
           height="1052.3622"
           width="744.09448"
           y="0"
           x="0"
           style="overflow:visible"
           xlink:href="#SVGID_166_"
           overflow="visible"
           id="use4226" />
      </clipPath>
      <path
         style="fill:#333333;fill-opacity:1"
         inkscape:connector-curvature="0"
         clip-path="url(#SVGID_167_)"
         d="m 304.35,272.402 c -0.314,-0.242 -0.68,-0.415 -1.102,-0.512 -0.416,-0.096 -0.863,-0.145 -1.337,-0.145 -0.476,0 -0.925,0.049 -1.351,0.145 -0.426,0.097 -0.795,0.27 -1.11,0.512 -0.313,0.243 -0.562,0.566 -0.744,0.963 -0.181,0.398 -0.272,0.898 -0.272,1.498 0,0.586 0.092,1.082 0.272,1.484 0.183,0.407 0.431,0.733 0.744,0.976 0.315,0.242 0.685,0.42 1.11,0.523 0.426,0.104 0.875,0.157 1.351,0.157 0.474,0 0.921,-0.053 1.337,-0.157 0.422,-0.103 0.787,-0.281 1.102,-0.523 0.314,-0.243 0.566,-0.569 0.752,-0.976 0.188,-0.402 0.283,-0.898 0.283,-1.484 0,-0.6 -0.096,-1.1 -0.283,-1.498 -0.186,-0.397 -0.438,-0.719 -0.752,-0.963"
         id="path1138" />
      <rect
         style="fill:#333333;fill-opacity:1"
         x="298.707"
         y="280.91299"
         clip-path="url(#SVGID_167_)"
         width="6.3889999"
         height="23.402"
         id="rect1140" />
      <path
         style="fill:#333333;fill-opacity:1"
         inkscape:connector-curvature="0"
         clip-path="url(#SVGID_167_)"
         d="m 301.896,257.011 c -17.267,0 -31.313,14.051 -31.313,31.321 0,17.27 14.047,31.319 31.313,31.319 17.271,0 31.32,-14.05 31.32,-31.319 10e-4,-17.27 -14.048,-31.321 -31.32,-31.321 m 0,58.118 c -14.772,0 -26.791,-12.021 -26.791,-26.797 0,-14.777 12.019,-26.799 26.791,-26.799 14.775,0 26.797,12.022 26.797,26.799 0,14.776 -12.021,26.797 -26.797,26.797"
         id="path1142" />
    </g>
  </g>
</svg>
