<?xml version="1.0" encoding="UTF-8" standalone="no"?>
<!-- Created with Inkscape (http://www.inkscape.org/) -->

<svg
   xmlns:dc="http://purl.org/dc/elements/1.1/"
   xmlns:cc="http://creativecommons.org/ns#"
   xmlns:rdf="http://www.w3.org/1999/02/22-rdf-syntax-ns#"
   xmlns:svg="http://www.w3.org/2000/svg"
   xmlns="http://www.w3.org/2000/svg"
   xmlns:xlink="http://www.w3.org/1999/xlink"
   xmlns:sodipodi="http://sodipodi.sourceforge.net/DTD/sodipodi-0.dtd"
   xmlns:inkscape="http://www.inkscape.org/namespaces/inkscape"
   width="32"
   height="32"
   id="svg2"
   version="1.1"
   inkscape:version="0.48.4 r9939"
   sodipodi:docname="ic_menu_logout.svg">
  <defs
     id="defs4">
    <clipPath
       id="SVGID_175_">
      <rect
         height="96"
         width="96"
         y="8.9899998"
         x="488.00601"
         id="use1188" />
    </clipPath>
    <clipPath
       id="SVGID_167_">
      <use
         height="1052.3622"
         width="744.09448"
         y="0"
         x="0"
         style="overflow:visible"
         xlink:href="#SVGID_166_"
         overflow="visible"
         id="use1136" />
    </clipPath>
    <clipPath
       id="clipPath4213">
      <use
         height="1052.3622"
         width="744.09448"
         y="0"
         x="0"
         style="overflow:visible"
         xlink:href="#SVGID_166_"
         overflow="visible"
         id="use4215" />
    </clipPath>
    <clipPath
       id="clipPath4217">
      <use
         height="1052.3622"
         width="744.09448"
         y="0"
         x="0"
         style="overflow:visible"
         xlink:href="#SVGID_166_"
         overflow="visible"
         id="use4219" />
    </clipPath>
    <defs
       id="defs1132">
      <rect
         height="96"
         width="96"
         y="240.33099"
         x="253.89999"
         id="SVGID_166_" />
    </defs>
    <clipPath
       id="clipPath4224">
      <use
         id="use4226"
         overflow="visible"
         xlink:href="#SVGID_166_"
         style="overflow:visible"
         x="0"
         y="0"
         width="744.09448"
         height="1052.3622" />
    </clipPath>
    <clipPath
       id="SVGID_139_">
      <use
         height="1052.3622"
         width="744.09448"
         y="0"
         x="0"
         style="overflow:visible"
         xlink:href="#SVGID_138_"
         overflow="visible"
         id="use924" />
    </clipPath>
    <clipPath
       id="clipPath4324">
      <use
         height="1052.3622"
         width="744.09448"
         y="0"
         x="0"
         style="overflow:visible"
         xlink:href="#SVGID_138_"
         overflow="visible"
         id="use4326" />
    </clipPath>
    <defs
       id="defs920">
      <rect
         height="96"
         width="96"
         y="841.89001"
         x="488.004"
         id="SVGID_138_" />
    </defs>
    <clipPath
       id="clipPath4331">
      <use
         id="use4333"
         overflow="visible"
         xlink:href="#SVGID_138_"
         style="overflow:visible"
         x="0"
         y="0"
         width="744.09448"
         height="1052.3622" />
    </clipPath>
    <clipPath
       id="SVGID_141_">
      <use
         xlink:href="#SVGID_140_"
         overflow="visible"
         id="use938" />
    </clipPath>
    <clipPath
       id="SVGID_141_-7">
      <use
         xlink:href="#SVGID_140_"
         overflow="visible"
         id="use938-9" />
    </clipPath>
    <clipPath
       id="SVGID_141_-6">
      <use
         height="1052.3622"
         width="744.09448"
         y="0"
         x="0"
         style="overflow:visible"
         xlink:href="#SVGID_140_"
         overflow="visible"
         id="use938-4" />
    </clipPath>
    <defs
       id="defs934">
      <rect
         height="96"
         width="96"
         y="717.23798"
         x="367.12299"
         id="SVGID_140_" />
    </defs>
    <clipPath
       id="clipPath4365">
      <use
         id="use4367"
         overflow="visible"
         xlink:href="#SVGID_140_"
         style="overflow:visible"
         x="0"
         y="0"
         width="744.09448"
         height="1052.3622" />
    </clipPath>
  </defs>
  <sodipodi:namedview
     id="base"
     pagecolor="#ffffff"
     bordercolor="#666666"
     borderopacity="1.0"
     inkscape:pageopacity="0"
     inkscape:pageshadow="2"
     inkscape:zoom="11.313709"
     inkscape:cx="-15.498125"
     inkscape:cy="15.857195"
     inkscape:document-units="px"
     inkscape:current-layer="layer1"
     showgrid="false"
     inkscape:window-width="1917"
     inkscape:window-height="1264"
     inkscape:window-x="455"
     inkscape:window-y="82"
     inkscape:window-maximized="0"
     showguides="true"
     inkscape:guide-bbox="true" />
  <metadata
     id="metadata7">
    <rdf:RDF>
      <cc:Work
         rdf:about="">
        <dc:format>image/svg+xml</dc:format>
        <dc:type
           rdf:resource="http://purl.org/dc/dcmitype/StillImage" />
        <dc:title />
      </cc:Work>
    </rdf:RDF>
  </metadata>
  <g
     inkscape:label="Layer 1"
     inkscape:groupmode="layer"
     id="layer1"
     transform="translate(0,-1020.3622)">
    <path
       style="opacity:0.8;fill:#ff00ff"
       clip-path="url(#SVGID_167_)"
       d="M 13.75 -1.09375 L 13.75 5.40625 C 14.377556 5.3000299 15.006142 5.2464907 15.65625 5.25 C 16.477103 5.2141491 17.291663 5.2715144 18.09375 5.40625 L 18.09375 -1.09375 L 13.75 -1.09375 z M 15.78125 8.5 C 15.090859 8.5139503 14.41578 8.6159492 13.75 8.78125 L 13.75 18.5 L 18.09375 18.5 L 18.09375 8.6875 C 17.347167 8.5187182 16.573748 8.454665 15.78125 8.5 z "
       transform="translate(0,1020.3622)"
       id="rect1140" />
    <image
       y="1014.4196"
       x="-144.90352"
       id="image3852"
       xlink:href="file:///home/andy/Desktop/logout-256.png"
       height="37"
       width="37"
       style="opacity:0.43579766" />
    <polygon
       transform="matrix(0.31118418,0,0,0.31118418,-276.9755,803.92043)"
       style="fill:#333333"
       clip-path="url(#SVGID_139_)"
       points="505.984,859.89 547.984,859.89 547.984,871.89 553.984,871.89 553.984,853.89 499.984,853.89 499.984,925.89 547.984,925.89 553.984,925.89 553.984,907.89 547.984,907.89 547.984,919.89 505.984,919.89 "
       id="polygon3895" />
    <path
       transform="translate(9.4696601e-6,1020.3622)"
       clip-path="url(#SVGID_141_)"
       d="m 401.992,755.48 v 8.48 l -18.357,-13.459 18.357,-13.454 v 8.394 0.035 h 10.557 c 20.748,0 34.063,6.075 34.063,23.979 0,17.898 -13.314,23.973 -34.063,23.973 h -23.762 v -9.967 h 23.762 c 17.676,0 24.094,-3.797 24.094,-14.006 0,-10.211 -6.418,-14.01 -24.094,-14.01 h -10.557 v 0.035 z"
       id="path940"
       inkscape:connector-curvature="0"
       style="fill:#333333" />
    <path
       transform="translate(9.4696601e-6,1020.3622)"
       clip-path="url(#SVGID_141_-7)"
       d="m 401.992,755.48 v 8.48 l -18.357,-13.459 18.357,-13.454 v 8.394 0.035 h 10.557 c 20.748,0 34.063,6.075 34.063,23.979 0,17.898 -13.314,23.973 -34.063,23.973 h -23.762 v -9.967 h 23.762 c 17.676,0 24.094,-3.797 24.094,-14.006 0,-10.211 -6.418,-14.01 -24.094,-14.01 h -10.557 v 0.035 z"
       id="path940-3"
       inkscape:connector-curvature="0"
       style="fill:#333333" />
    <g
       id="g3995"
       transform="matrix(0.80518528,0,0,0.80518528,1.8561872,201.21614)"
       style="opacity:0.80000000000000004;fill:#ffffff">
      <path
         sodipodi:nodetypes="cccccccccccccc"
         inkscape:connector-curvature="0"
         id="polygon3931"
         d="m 505.984,859.89 46.10144,0 0,21.85425 6,0 0,-27.85425 -58.10144,0 0,72 52.10144,0 6,0 0,-22.76449 -6,0 0,16.76449 -46.10144,0 z"
         clip-path="url(#SVGID_139_)"
         style="fill:#ffffff"
         transform="matrix(0.32325819,0,0,0.32325819,-157.19839,746.27946)" />
      <path
         sodipodi:nodetypes="ccccc"
         inkscape:connector-curvature="0"
         id="rect3897"
         d="m 4.4255299,1022.3064 11.8057871,6.5325 0,23.2743 -11.8057871,-6.5325 z"
         style="fill:#ffffff;fill-opacity:1;stroke:none" />
      <g
         transform="matrix(0.23921939,0,0,0.23921939,32.637749,798.95145)"
         id="g3990"
         style="fill:#ffffff">
        <path
           id="path940-0"
           d="m 401.992,755.48 0,8.48 -18.357,-13.459 18.357,-13.454 0,8.394 0,0.035 10.557,0 c 12.88561,0.23865 3.10667,9.99571 0,9.969 l -10.557,0 z"
           clip-path="url(#SVGID_141_-6)"
           inkscape:connector-curvature="0"
           style="fill:#ffffff;fill-opacity:1"
           transform="matrix(-1,0,0,1,375.561,235.4997)"
           sodipodi:nodetypes="cccccccccc" />
        <path
           sodipodi:nodetypes="ccccc"
           inkscape:connector-curvature="0"
           style="fill:#ffffff;fill-opacity:1;stroke:none"
           d="m -56.7856,980.97028 30.357486,0 0,9.98298 -30.357486,0 z"
           id="rect3984" />
      </g>
    </g>
  </g>
</svg>
