<?xml version="1.0" encoding="UTF-8" standalone="no"?>
<!-- Created with Inkscape (http://www.inkscape.org/) -->

<svg
   xmlns:dc="http://purl.org/dc/elements/1.1/"
   xmlns:cc="http://creativecommons.org/ns#"
   xmlns:rdf="http://www.w3.org/1999/02/22-rdf-syntax-ns#"
   xmlns:svg="http://www.w3.org/2000/svg"
   xmlns="http://www.w3.org/2000/svg"
   xmlns:sodipodi="http://sodipodi.sourceforge.net/DTD/sodipodi-0.dtd"
   xmlns:inkscape="http://www.inkscape.org/namespaces/inkscape"
   width="40"
   height="40"
   id="svg2"
   version="1.1"
   inkscape:version="0.48.0 r9654"
   sodipodi:docname="ic_title_refresh_default.svg">
  <defs
     id="defs4" />
  <sodipodi:namedview
     id="base"
     pagecolor="#ffffff"
     bordercolor="#666666"
     borderopacity="1.0"
     inkscape:pageopacity="0.0"
     inkscape:pageshadow="2"
     inkscape:zoom="16"
     inkscape:cx="32.439097"
     inkscape:cy="19.411764"
     inkscape:document-units="px"
     inkscape:current-layer="layer1"
     showgrid="false"
     inkscape:window-width="1440"
     inkscape:window-height="825"
     inkscape:window-x="0"
     inkscape:window-y="24"
     inkscape:window-maximized="1"
     showguides="true"
     inkscape:guide-bbox="true" />
  <metadata
     id="metadata7">
    <rdf:RDF>
      <cc:Work
         rdf:about="">
        <dc:format>image/svg+xml</dc:format>
        <dc:type
           rdf:resource="http://purl.org/dc/dcmitype/StillImage" />
        <dc:title />
      </cc:Work>
    </rdf:RDF>
  </metadata>
  <g
     inkscape:label="Layer 1"
     inkscape:groupmode="layer"
     id="layer1"
     transform="translate(0,-1012.3622)">
    <path
       style="opacity:1;fill:#ffffff;fill-opacity:1;stroke:none"
       d="M 20 7.09375 C 12.877657 7.09375 7.09375 12.8777 7.09375 20 C 7.09375 20.1274 7.1213242 20.248482 7.125 20.375 L 11.9375 20.375 C 11.931577 20.248209 11.9375 20.128256 11.9375 20 C 11.9375 15.547204 15.547204 11.9375 20 11.9375 C 22.488808 11.9375 24.708549 13.071461 26.1875 14.84375 L 31.84375 14.84375 C 29.853258 10.280619 25.292297 7.09375 20 7.09375 z M 28.0625 19.65625 C 28.067482 19.772592 28.0625 19.882432 28.0625 20 C 28.0625 24.452796 24.452796 28.0625 20 28.0625 C 17.527082 28.0625 15.32271 26.940276 13.84375 25.1875 L 8.1875 25.1875 C 10.186728 29.730164 14.722542 32.90625 20 32.90625 C 27.122343 32.90625 32.90625 27.1223 32.90625 20 C 32.90625 19.883175 32.878093 19.772335 32.875 19.65625 L 28.0625 19.65625 z "
       transform="translate(0,1012.3622)"
       id="path3898" />
    <path
       sodipodi:type="star"
       style="opacity:1;fill:#ffffff;fill-opacity:1;stroke:none"
       id="path3904"
       sodipodi:sides="3"
       sodipodi:cx="39"
       sodipodi:cy="3.3125"
       sodipodi:r1="7.247036"
       sodipodi:r2="3.6235175"
       sodipodi:arg1="0.52359878"
       sodipodi:arg2="1.5707963"
       inkscape:flatsided="false"
       inkscape:rounded="0"
       inkscape:randomized="0"
       d="M 45.276117,6.936018 39,6.9360175 32.723883,6.936018 35.861942,1.5007413 39,-3.934536 42.138058,1.5007412 z"
       transform="matrix(0.77006275,0.13986309,-0.43995599,0.82297722,0.17500402,1018.2855)"
       inkscape:transform-center-y="-1.0522257"
       inkscape:transform-center-x="1.5940962" />
    <path
       sodipodi:type="star"
       style="opacity:1;fill:#ffffff;fill-opacity:1;stroke:none"
       id="path3904-8"
       sodipodi:sides="3"
       sodipodi:cx="39"
       sodipodi:cy="3.3125"
       sodipodi:r1="7.247036"
       sodipodi:r2="3.6235175"
       sodipodi:arg1="0.52359878"
       sodipodi:arg2="1.5707963"
       inkscape:flatsided="false"
       inkscape:rounded="0"
       inkscape:randomized="0"
       d="M 45.276117,6.936018 39,6.9360175 32.723883,6.936018 35.861942,1.5007413 39,-3.934536 42.138058,1.5007412 z"
       transform="matrix(-0.77006275,-0.13986309,0.43995599,-0.82297722,39.793404,1046.4284)"
       inkscape:transform-center-y="1.0522562"
       inkscape:transform-center-x="-1.594096" />
  </g>
</svg>
