<?xml version="1.0" encoding="UTF-8" standalone="no"?>
<!-- Created with Inkscape (http://www.inkscape.org/) -->

<svg
   xmlns:dc="http://purl.org/dc/elements/1.1/"
   xmlns:cc="http://creativecommons.org/ns#"
   xmlns:rdf="http://www.w3.org/1999/02/22-rdf-syntax-ns#"
   xmlns:svg="http://www.w3.org/2000/svg"
   xmlns="http://www.w3.org/2000/svg"
   xmlns:xlink="http://www.w3.org/1999/xlink"
   xmlns:sodipodi="http://sodipodi.sourceforge.net/DTD/sodipodi-0.dtd"
   xmlns:inkscape="http://www.inkscape.org/namespaces/inkscape"
   width="350"
   height="60"
   id="svg2"
   version="1.1"
   inkscape:version="0.48.0 r9654"
   sodipodi:docname="title_small.svg">
  <defs
     id="defs4">
    <linearGradient
       y2="-4.2833176"
       x2="25.970385"
       y1="-6.8648982"
       x1="25.99827"
       gradientTransform="matrix(1.4418641,0,0,2.7755587,-13.524132,39.280185)"
       gradientUnits="userSpaceOnUse"
       id="linearGradient3125"
       xlink:href="#linearGradient5113"
       inkscape:collect="always" />
    <linearGradient
       y2="-49.625301"
       x2="23.732271"
       y1="-40.465305"
       x1="25.865906"
       gradientUnits="userSpaceOnUse"
       id="linearGradient3123"
       xlink:href="#linearGradient8028"
       inkscape:collect="always" />
    <linearGradient
       y2="51.027462"
       x2="26.1399"
       y1="20.92672"
       x1="25.593685"
       gradientUnits="userSpaceOnUse"
       id="linearGradient3121"
       xlink:href="#linearGradient2789"
       inkscape:collect="always" />
    <radialGradient
       r="17.709194"
       fy="15.491104"
       fx="10.78257"
       cy="15.491104"
       cx="10.78257"
       gradientTransform="matrix(0.4044676,0,0,0.427577,4.3012139,2.476585)"
       gradientUnits="userSpaceOnUse"
       id="radialGradient3119"
       xlink:href="#linearGradient2322"
       inkscape:collect="always" />
    <linearGradient
       y2="-49.625301"
       x2="23.732271"
       y1="-40.465305"
       x1="25.865906"
       gradientUnits="userSpaceOnUse"
       id="linearGradient4621"
       xlink:href="#linearGradient8028"
       inkscape:collect="always" />
    <linearGradient
       y2="51.027462"
       x2="26.1399"
       y1="20.92672"
       x1="25.593685"
       gradientUnits="userSpaceOnUse"
       id="linearGradient4619"
       xlink:href="#linearGradient2789"
       inkscape:collect="always" />
    <radialGradient
       r="17.709194"
       fy="15.491104"
       fx="10.78257"
       cy="15.491104"
       cx="10.78257"
       gradientTransform="matrix(0.4044676,0,0,0.427577,4.3012139,2.476585)"
       gradientUnits="userSpaceOnUse"
       id="radialGradient4617"
       xlink:href="#linearGradient2322"
       inkscape:collect="always" />
    <linearGradient
       y2="-4.2833176"
       x2="25.970385"
       y1="-6.8648982"
       x1="25.99827"
       gradientTransform="matrix(1.4418641,0,0,2.7755587,-13.524132,39.280185)"
       gradientUnits="userSpaceOnUse"
       id="linearGradient4615"
       xlink:href="#linearGradient5113"
       inkscape:collect="always" />
    <linearGradient
       y2="-4.2833176"
       x2="25.970385"
       y1="-6.8648982"
       x1="25.99827"
       gradientTransform="matrix(1.4418641,0,0,2.7755587,-13.524132,39.280185)"
       gradientUnits="userSpaceOnUse"
       id="linearGradient4569"
       xlink:href="#linearGradient5113"
       inkscape:collect="always" />
    <linearGradient
       y2="-49.625301"
       x2="23.732271"
       y1="-40.465305"
       x1="25.865906"
       gradientUnits="userSpaceOnUse"
       id="linearGradient4567"
       xlink:href="#linearGradient8028"
       inkscape:collect="always" />
    <linearGradient
       y2="51.027462"
       x2="26.1399"
       y1="20.92672"
       x1="25.593685"
       gradientUnits="userSpaceOnUse"
       id="linearGradient4565"
       xlink:href="#linearGradient2789"
       inkscape:collect="always" />
    <radialGradient
       r="17.709194"
       fy="15.491104"
       fx="10.78257"
       cy="15.491104"
       cx="10.78257"
       gradientTransform="matrix(0.4044676,0,0,0.427577,4.3012139,2.476585)"
       gradientUnits="userSpaceOnUse"
       id="radialGradient4563"
       xlink:href="#linearGradient2322"
       inkscape:collect="always" />
    <radialGradient
       r="12.125"
       fy="27.875"
       fx="16"
       cy="27.875"
       cx="16"
       gradientTransform="matrix(1,0,0,0.2886598,0,19.828608)"
       gradientUnits="userSpaceOnUse"
       id="radialGradient4561"
       xlink:href="#linearGradient6917"
       inkscape:collect="always" />
    <linearGradient
       y2="-4.2833176"
       x2="25.970385"
       y1="-6.8648982"
       x1="25.99827"
       gradientTransform="matrix(1.4418641,0,0,2.7755587,-13.524132,39.280185)"
       gradientUnits="userSpaceOnUse"
       id="linearGradient4549"
       xlink:href="#linearGradient5113"
       inkscape:collect="always" />
    <linearGradient
       y2="-49.625301"
       x2="23.732271"
       y1="-40.465305"
       x1="25.865906"
       gradientUnits="userSpaceOnUse"
       id="linearGradient4547"
       xlink:href="#linearGradient8028"
       inkscape:collect="always" />
    <linearGradient
       y2="51.027462"
       x2="26.1399"
       y1="20.92672"
       x1="25.593685"
       gradientUnits="userSpaceOnUse"
       id="linearGradient4545"
       xlink:href="#linearGradient2789"
       inkscape:collect="always" />
    <radialGradient
       r="17.709194"
       fy="15.491104"
       fx="10.78257"
       cy="15.491104"
       cx="10.78257"
       gradientTransform="matrix(0.4044676,0,0,0.427577,4.3012139,2.476585)"
       gradientUnits="userSpaceOnUse"
       id="radialGradient4543"
       xlink:href="#linearGradient2322"
       inkscape:collect="always" />
    <radialGradient
       r="12.125"
       fy="27.875"
       fx="16"
       cy="27.875"
       cx="16"
       gradientTransform="matrix(1,0,0,0.2886598,0,19.828608)"
       gradientUnits="userSpaceOnUse"
       id="radialGradient4541"
       xlink:href="#linearGradient6917"
       inkscape:collect="always" />
    <linearGradient
       y2="51.027462"
       x2="26.1399"
       y1="20.92672"
       x1="25.593685"
       gradientUnits="userSpaceOnUse"
       id="linearGradient4516"
       xlink:href="#linearGradient2789-1-9"
       inkscape:collect="always" />
    <linearGradient
       y2="-4.2833176"
       x2="25.970385"
       y1="-6.8648982"
       x1="25.99827"
       gradientTransform="matrix(1.4418641,0,0,2.7755587,-13.524132,39.280185)"
       gradientUnits="userSpaceOnUse"
       id="linearGradient4514"
       xlink:href="#linearGradient5113-4-3"
       inkscape:collect="always" />
    <radialGradient
       r="17.709194"
       fy="15.491104"
       fx="10.78257"
       cy="15.491104"
       cx="10.78257"
       gradientTransform="matrix(0.4044676,0,0,0.427577,4.3012139,2.476585)"
       gradientUnits="userSpaceOnUse"
       id="radialGradient4512"
       xlink:href="#linearGradient2322-8-1"
       inkscape:collect="always" />
    <linearGradient
       y2="-49.625301"
       x2="23.732271"
       y1="-40.465305"
       x1="25.865906"
       gradientUnits="userSpaceOnUse"
       id="linearGradient4510"
       xlink:href="#linearGradient8028-8-6"
       inkscape:collect="always" />
    <radialGradient
       r="17.709194"
       fy="15.491104"
       fx="10.78257"
       cy="15.491104"
       cx="10.78257"
       gradientTransform="matrix(0.4044676,0,0,0.427577,4.3012139,2.476585)"
       gradientUnits="userSpaceOnUse"
       id="radialGradient4502"
       xlink:href="#linearGradient2322-8-1"
       inkscape:collect="always" />
    <linearGradient
       y2="-49.625301"
       x2="23.732271"
       y1="-40.465305"
       x1="25.865906"
       gradientUnits="userSpaceOnUse"
       id="linearGradient4500"
       xlink:href="#linearGradient8028-8-6"
       inkscape:collect="always" />
    <linearGradient
       y2="51.027462"
       x2="26.1399"
       y1="20.92672"
       x1="25.593685"
       gradientUnits="userSpaceOnUse"
       id="linearGradient4498"
       xlink:href="#linearGradient2789-1-9"
       inkscape:collect="always" />
    <linearGradient
       y2="51.027462"
       x2="26.1399"
       y1="20.92672"
       x1="25.593685"
       gradientUnits="userSpaceOnUse"
       id="linearGradient4485"
       xlink:href="#linearGradient2789-1-9"
       inkscape:collect="always" />
    <radialGradient
       r="17.709194"
       fy="15.491104"
       fx="10.78257"
       cy="15.491104"
       cx="10.78257"
       gradientTransform="matrix(0.4044676,0,0,0.427577,4.3012139,2.476585)"
       gradientUnits="userSpaceOnUse"
       id="radialGradient4483"
       xlink:href="#linearGradient2322-8-1"
       inkscape:collect="always" />
    <radialGradient
       r="17.709194"
       fy="15.491104"
       fx="10.78257"
       cy="15.491104"
       cx="10.78257"
       gradientTransform="matrix(0.4044676,0,0,0.427577,4.3012139,2.476585)"
       gradientUnits="userSpaceOnUse"
       id="radialGradient4477"
       xlink:href="#linearGradient2322-8-1"
       inkscape:collect="always" />
    <linearGradient
       y2="-49.625301"
       x2="23.732271"
       y1="-40.465305"
       x1="25.865906"
       gradientUnits="userSpaceOnUse"
       id="linearGradient4475"
       xlink:href="#linearGradient8028-8-6"
       inkscape:collect="always" />
    <linearGradient
       y2="51.027462"
       x2="26.1399"
       y1="20.92672"
       x1="25.593685"
       gradientUnits="userSpaceOnUse"
       id="linearGradient4473"
       xlink:href="#linearGradient2789-1-9"
       inkscape:collect="always" />
    <linearGradient
       y2="-4.2833176"
       x2="25.970385"
       y1="-6.8648982"
       x1="25.99827"
       gradientTransform="matrix(1.4418641,0,0,2.7755587,-13.524132,39.280185)"
       gradientUnits="userSpaceOnUse"
       id="linearGradient4465"
       xlink:href="#linearGradient5113-4-3"
       inkscape:collect="always" />
    <radialGradient
       r="12.125"
       fy="27.875"
       fx="16"
       cy="27.875"
       cx="16"
       gradientTransform="matrix(1,0,0,0.2886598,0,19.828608)"
       gradientUnits="userSpaceOnUse"
       id="radialGradient4463"
       xlink:href="#linearGradient6917-6"
       inkscape:collect="always" />
    <linearGradient
       inkscape:collect="always"
       xlink:href="#linearGradient5113-4-3"
       id="linearGradient4436"
       gradientUnits="userSpaceOnUse"
       gradientTransform="matrix(1.4418641,0,0,2.7755587,-13.524132,39.280185)"
       x1="25.99827"
       y1="-6.8648982"
       x2="25.970385"
       y2="-4.2833176" />
    <linearGradient
       id="linearGradient5113-4-3"
       inkscape:collect="always">
      <stop
         id="stop5115-2-0"
         offset="0"
         style="stop-color:white;stop-opacity:1;" />
      <stop
         id="stop5117-2-7"
         offset="1"
         style="stop-color:white;stop-opacity:0;" />
    </linearGradient>
    <linearGradient
       y2="-4.2833176"
       x2="25.970385"
       y1="-6.8648982"
       x1="25.99827"
       gradientTransform="matrix(1.4418641,0,0,2.7755587,-13.524132,39.280185)"
       gradientUnits="userSpaceOnUse"
       id="linearGradient4199-0-8"
       xlink:href="#linearGradient5113-4-3"
       inkscape:collect="always" />
    <radialGradient
       inkscape:collect="always"
       xlink:href="#linearGradient2322-8-1"
       id="radialGradient4400"
       gradientUnits="userSpaceOnUse"
       gradientTransform="matrix(0.4044676,0,0,0.427577,4.3012139,2.476585)"
       cx="10.78257"
       cy="15.491104"
       fx="10.78257"
       fy="15.491104"
       r="17.709194" />
    <linearGradient
       id="linearGradient2322-8-1">
      <stop
         id="stop2324-2-9"
         offset="0"
         style="stop-color:white;stop-opacity:1;" />
      <stop
         id="stop2326-2-7"
         offset="1"
         style="stop-color:#c1c7bc;stop-opacity:1;" />
    </linearGradient>
    <radialGradient
       r="17.709194"
       fy="15.491104"
       fx="10.78257"
       cy="15.491104"
       cx="10.78257"
       gradientTransform="matrix(0.4044676,0,0,0.427577,4.3012139,2.476585)"
       gradientUnits="userSpaceOnUse"
       id="radialGradient4193-6-2"
       xlink:href="#linearGradient2322-8-1"
       inkscape:collect="always" />
    <linearGradient
       inkscape:collect="always"
       xlink:href="#linearGradient8028-8-6"
       id="linearGradient4364"
       gradientUnits="userSpaceOnUse"
       x1="25.865906"
       y1="-40.465305"
       x2="23.732271"
       y2="-49.625301" />
    <linearGradient
       id="linearGradient8028-8-6"
       inkscape:collect="always">
      <stop
         id="stop8030-8-7"
         offset="0"
         style="stop-color:#ffffff;stop-opacity:1;" />
      <stop
         id="stop8032-4-5"
         offset="1"
         style="stop-color:#ffffff;stop-opacity:0;" />
    </linearGradient>
    <linearGradient
       y2="-49.625301"
       x2="23.732271"
       y1="-40.465305"
       x1="25.865906"
       gradientUnits="userSpaceOnUse"
       id="linearGradient4197-8-1"
       xlink:href="#linearGradient8028-8-6"
       inkscape:collect="always" />
    <linearGradient
       inkscape:collect="always"
       xlink:href="#linearGradient2789-1-9"
       id="linearGradient4330"
       gradientUnits="userSpaceOnUse"
       x1="25.593685"
       y1="20.92672"
       x2="26.1399"
       y2="51.027462" />
    <linearGradient
       id="linearGradient2789-1-9"
       inkscape:collect="always">
      <stop
         id="stop2791-2-8"
         offset="0"
         style="stop-color:white;stop-opacity:1;" />
      <stop
         id="stop2793-4-4"
         offset="1"
         style="stop-color:white;stop-opacity:0;" />
    </linearGradient>
    <linearGradient
       y2="51.027462"
       x2="26.1399"
       y1="20.92672"
       x1="25.593685"
       gradientUnits="userSpaceOnUse"
       id="linearGradient4195-4-1"
       xlink:href="#linearGradient2789-1-9"
       inkscape:collect="always" />
    <linearGradient
       id="linearGradient5113-4"
       inkscape:collect="always">
      <stop
         id="stop5115-2"
         offset="0"
         style="stop-color:white;stop-opacity:1;" />
      <stop
         id="stop5117-2"
         offset="1"
         style="stop-color:white;stop-opacity:0;" />
    </linearGradient>
    <linearGradient
       y2="-4.2833176"
       x2="25.970385"
       y1="-6.8648982"
       x1="25.99827"
       gradientTransform="matrix(1.4418641,0,0,2.7755587,-13.524132,39.280185)"
       gradientUnits="userSpaceOnUse"
       id="linearGradient4199-0"
       xlink:href="#linearGradient5113-4"
       inkscape:collect="always" />
    <linearGradient
       id="linearGradient8028-8"
       inkscape:collect="always">
      <stop
         id="stop8030-8"
         offset="0"
         style="stop-color:#ffffff;stop-opacity:1;" />
      <stop
         id="stop8032-4"
         offset="1"
         style="stop-color:#ffffff;stop-opacity:0;" />
    </linearGradient>
    <linearGradient
       y2="-49.625301"
       x2="23.732271"
       y1="-40.465305"
       x1="25.865906"
       gradientUnits="userSpaceOnUse"
       id="linearGradient4197-8"
       xlink:href="#linearGradient8028-8"
       inkscape:collect="always" />
    <linearGradient
       id="linearGradient2789-1"
       inkscape:collect="always">
      <stop
         id="stop2791-2"
         offset="0"
         style="stop-color:white;stop-opacity:1;" />
      <stop
         id="stop2793-4"
         offset="1"
         style="stop-color:white;stop-opacity:0;" />
    </linearGradient>
    <linearGradient
       y2="51.027462"
       x2="26.1399"
       y1="20.92672"
       x1="25.593685"
       gradientUnits="userSpaceOnUse"
       id="linearGradient4195-4"
       xlink:href="#linearGradient2789-1"
       inkscape:collect="always" />
    <linearGradient
       id="linearGradient2322-8">
      <stop
         id="stop2324-2"
         offset="0"
         style="stop-color:white;stop-opacity:1;" />
      <stop
         id="stop2326-2"
         offset="1"
         style="stop-color:#c1c7bc;stop-opacity:1;" />
    </linearGradient>
    <radialGradient
       r="17.709194"
       fy="15.491104"
       fx="10.78257"
       cy="15.491104"
       cx="10.78257"
       gradientTransform="matrix(0.4044676,0,0,0.427577,4.3012139,2.476585)"
       gradientUnits="userSpaceOnUse"
       id="radialGradient4193-6"
       xlink:href="#linearGradient2322-8"
       inkscape:collect="always" />
    <linearGradient
       id="linearGradient6917-6"
       inkscape:collect="always">
      <stop
         id="stop6919-5"
         offset="0"
         style="stop-color:#000000;stop-opacity:1;" />
      <stop
         id="stop6921-1"
         offset="1"
         style="stop-color:#000000;stop-opacity:0;" />
    </linearGradient>
    <radialGradient
       r="12.125"
       fy="27.875"
       fx="16"
       cy="27.875"
       cx="16"
       gradientTransform="matrix(1,0,0,0.2886598,0,19.828608)"
       gradientUnits="userSpaceOnUse"
       id="radialGradient4191-0"
       xlink:href="#linearGradient6917-6"
       inkscape:collect="always" />
    <linearGradient
       y2="-4.2833176"
       x2="25.970385"
       y1="-6.8648982"
       x1="25.99827"
       gradientTransform="matrix(1.4418641,0,0,2.7755587,-13.524132,39.280185)"
       gradientUnits="userSpaceOnUse"
       id="linearGradient4199"
       xlink:href="#linearGradient5113"
       inkscape:collect="always" />
    <linearGradient
       y2="-49.625301"
       x2="23.732271"
       y1="-40.465305"
       x1="25.865906"
       gradientUnits="userSpaceOnUse"
       id="linearGradient4197"
       xlink:href="#linearGradient8028"
       inkscape:collect="always" />
    <linearGradient
       y2="51.027462"
       x2="26.1399"
       y1="20.92672"
       x1="25.593685"
       gradientUnits="userSpaceOnUse"
       id="linearGradient4195"
       xlink:href="#linearGradient2789"
       inkscape:collect="always" />
    <radialGradient
       r="17.709194"
       fy="15.491104"
       fx="10.78257"
       cy="15.491104"
       cx="10.78257"
       gradientTransform="matrix(0.4044676,0,0,0.427577,4.3012139,2.476585)"
       gradientUnits="userSpaceOnUse"
       id="radialGradient4193"
       xlink:href="#linearGradient2322"
       inkscape:collect="always" />
    <radialGradient
       r="12.125"
       fy="27.875"
       fx="16"
       cy="27.875"
       cx="16"
       gradientTransform="matrix(1,0,0,0.2886598,0,19.828608)"
       gradientUnits="userSpaceOnUse"
       id="radialGradient4191"
       xlink:href="#linearGradient6917"
       inkscape:collect="always" />
    <radialGradient
       inkscape:collect="always"
       xlink:href="#linearGradient2322-6"
       id="radialGradient4161"
       gradientUnits="userSpaceOnUse"
       gradientTransform="matrix(0.4044676,0,0,0.427577,4.3012139,2.476585)"
       cx="10.78257"
       cy="15.491104"
       fx="10.78257"
       fy="15.491104"
       r="17.709194" />
    <linearGradient
       id="linearGradient2322-6">
      <stop
         id="stop2324-0"
         offset="0"
         style="stop-color:white;stop-opacity:1;" />
      <stop
         id="stop2326-6"
         offset="1"
         style="stop-color:#c1c7bc;stop-opacity:1;" />
    </linearGradient>
    <radialGradient
       r="17.709194"
       fy="15.491104"
       fx="10.78257"
       cy="15.491104"
       cx="10.78257"
       gradientTransform="matrix(0.4044676,0,0,0.427577,4.3012139,2.476585)"
       gradientUnits="userSpaceOnUse"
       id="radialGradient4113-4"
       xlink:href="#linearGradient2322-6"
       inkscape:collect="always" />
    <linearGradient
       y2="-49.625301"
       x2="23.732271"
       y1="-40.465305"
       x1="25.865906"
       gradientUnits="userSpaceOnUse"
       id="linearGradient4130"
       xlink:href="#linearGradient8028"
       inkscape:collect="always" />
    <linearGradient
       y2="51.027462"
       x2="26.1399"
       y1="20.92672"
       x1="25.593685"
       gradientUnits="userSpaceOnUse"
       id="linearGradient4128"
       xlink:href="#linearGradient2789"
       inkscape:collect="always" />
    <linearGradient
       y2="-4.2833176"
       x2="25.970385"
       y1="-6.8648982"
       x1="25.99827"
       gradientTransform="matrix(1.4418641,0,0,2.7755587,-13.524132,39.280185)"
       gradientUnits="userSpaceOnUse"
       id="linearGradient4120"
       xlink:href="#linearGradient5113"
       inkscape:collect="always" />
    <linearGradient
       y2="-49.625301"
       x2="23.732271"
       y1="-40.465305"
       x1="25.865906"
       gradientUnits="userSpaceOnUse"
       id="linearGradient4117"
       xlink:href="#linearGradient8028"
       inkscape:collect="always" />
    <linearGradient
       y2="51.027462"
       x2="26.1399"
       y1="20.92672"
       x1="25.593685"
       gradientUnits="userSpaceOnUse"
       id="linearGradient4115"
       xlink:href="#linearGradient2789"
       inkscape:collect="always" />
    <radialGradient
       r="17.709194"
       fy="15.491104"
       fx="10.78257"
       cy="15.491104"
       cx="10.78257"
       gradientTransform="matrix(0.4044676,0,0,0.427577,4.3012139,2.476585)"
       gradientUnits="userSpaceOnUse"
       id="radialGradient4113"
       xlink:href="#linearGradient2322"
       inkscape:collect="always" />
    <linearGradient
       y2="-1.6083169"
       x2="43.502598"
       y1="-11.068471"
       x1="18.396891"
       gradientTransform="matrix(1.4269719,0,0,2.773662,-12.584199,37.876761)"
       gradientUnits="userSpaceOnUse"
       id="linearGradient4104"
       xlink:href="#linearGradient5113"
       inkscape:collect="always" />
    <radialGradient
       r="17.709194"
       fy="15.491104"
       fx="10.78257"
       cy="15.491104"
       cx="10.78257"
       gradientTransform="matrix(0.4044676,0,0,0.427577,4.3012139,2.476585)"
       gradientUnits="userSpaceOnUse"
       id="radialGradient3917"
       xlink:href="#linearGradient2322"
       inkscape:collect="always" />
    <radialGradient
       r="12.125"
       fy="27.875"
       fx="16"
       cy="27.875"
       cx="16"
       gradientTransform="matrix(1,0,0,0.2886598,0,19.828608)"
       gradientUnits="userSpaceOnUse"
       id="radialGradient3915"
       xlink:href="#linearGradient6917"
       inkscape:collect="always" />
    <linearGradient
       y2="-49.625301"
       x2="23.732271"
       y1="-40.465305"
       x1="25.865906"
       gradientUnits="userSpaceOnUse"
       id="linearGradient3909"
       xlink:href="#linearGradient8028"
       inkscape:collect="always" />
    <linearGradient
       y2="51.027462"
       x2="26.1399"
       y1="20.92672"
       x1="25.593685"
       gradientUnits="userSpaceOnUse"
       id="linearGradient3907"
       xlink:href="#linearGradient2789"
       inkscape:collect="always" />
    <linearGradient
       y2="-1.6083169"
       x2="43.502598"
       y1="-11.068471"
       x1="18.396891"
       gradientTransform="matrix(1.4269719,0,0,2.773662,-12.584199,37.876761)"
       gradientUnits="userSpaceOnUse"
       id="linearGradient3903"
       xlink:href="#linearGradient5113"
       inkscape:collect="always" />
    <linearGradient
       id="linearGradient5113"
       inkscape:collect="always">
      <stop
         id="stop5115"
         offset="0"
         style="stop-color:white;stop-opacity:1;" />
      <stop
         id="stop5117"
         offset="1"
         style="stop-color:white;stop-opacity:0;" />
    </linearGradient>
    <linearGradient
       id="linearGradient2276">
      <stop
         id="stop2278"
         offset="0"
         style="stop-color:#f57900;stop-opacity:1;" />
      <stop
         id="stop2280"
         offset="1"
         style="stop-color:#fcaf3e;stop-opacity:1;" />
    </linearGradient>
    <linearGradient
       id="linearGradient2322">
      <stop
         id="stop2324"
         offset="0"
         style="stop-color:white;stop-opacity:1;" />
      <stop
         id="stop2326"
         offset="1"
         style="stop-color:#c1c7bc;stop-opacity:1;" />
    </linearGradient>
    <linearGradient
       id="linearGradient2789"
       inkscape:collect="always">
      <stop
         id="stop2791"
         offset="0"
         style="stop-color:white;stop-opacity:1;" />
      <stop
         id="stop2793"
         offset="1"
         style="stop-color:white;stop-opacity:0;" />
    </linearGradient>
    <linearGradient
       id="linearGradient6917"
       inkscape:collect="always">
      <stop
         id="stop6919"
         offset="0"
         style="stop-color:#000000;stop-opacity:1;" />
      <stop
         id="stop6921"
         offset="1"
         style="stop-color:#000000;stop-opacity:0;" />
    </linearGradient>
    <linearGradient
       id="linearGradient8028"
       inkscape:collect="always">
      <stop
         id="stop8030"
         offset="0"
         style="stop-color:#ffffff;stop-opacity:1;" />
      <stop
         id="stop8032"
         offset="1"
         style="stop-color:#ffffff;stop-opacity:0;" />
    </linearGradient>
    <radialGradient
       inkscape:collect="always"
       xlink:href="#linearGradient2322"
       id="radialGradient5425"
       gradientUnits="userSpaceOnUse"
       gradientTransform="matrix(0.4044676,0,0,0.427577,4.3012139,2.476585)"
       cx="10.78257"
       cy="15.491104"
       fx="10.78257"
       fy="15.491104"
       r="17.709194" />
    <linearGradient
       inkscape:collect="always"
       xlink:href="#linearGradient2789"
       id="linearGradient5427"
       gradientUnits="userSpaceOnUse"
       x1="25.593685"
       y1="20.92672"
       x2="26.1399"
       y2="51.027462" />
    <linearGradient
       inkscape:collect="always"
       xlink:href="#linearGradient8028"
       id="linearGradient5429"
       gradientUnits="userSpaceOnUse"
       x1="25.865906"
       y1="-40.465305"
       x2="23.732271"
       y2="-49.625301" />
    <linearGradient
       inkscape:collect="always"
       xlink:href="#linearGradient5113"
       id="linearGradient5431"
       gradientUnits="userSpaceOnUse"
       gradientTransform="matrix(1.4418641,0,0,2.7755587,-13.524132,39.280185)"
       x1="25.99827"
       y1="-6.8648982"
       x2="25.970385"
       y2="-4.2833176" />
    <radialGradient
       inkscape:collect="always"
       xlink:href="#linearGradient6917"
       id="radialGradient5433"
       gradientUnits="userSpaceOnUse"
       gradientTransform="matrix(1,0,0,0.2886598,0,19.828608)"
       cx="16"
       cy="27.875"
       fx="16"
       fy="27.875"
       r="12.125" />
    <radialGradient
       r="349.74908"
       fy="548.3847"
       fx="332.17453"
       cy="548.3847"
       cx="332.17453"
       gradientTransform="matrix(0.0720138,0.01394894,-0.00502044,0.03380686,-165.85263,1002.6258)"
       gradientUnits="userSpaceOnUse"
       id="radialGradient4083"
       xlink:href="#linearGradient10691-6-4"
       inkscape:collect="always" />
    <linearGradient
       id="linearGradient10691-6-4">
      <stop
         offset="0"
         style="stop-color:#000000;stop-opacity:1"
         id="stop10693-9-0" />
      <stop
         offset="1"
         style="stop-color:#000000;stop-opacity:0"
         id="stop10695-9-8" />
    </linearGradient>
    <radialGradient
       inkscape:collect="always"
       xlink:href="#linearGradient10691-6"
       id="radialGradient5278"
       gradientUnits="userSpaceOnUse"
       gradientTransform="matrix(0.06092055,0.01675307,-0.00424708,0.04060297,23.880367,992.28137)"
       cx="332.17453"
       cy="548.3847"
       fx="332.17453"
       fy="548.3847"
       r="349.74908" />
    <linearGradient
       id="linearGradient10691-6">
      <stop
         offset="0"
         style="stop-color:#000000;stop-opacity:1"
         id="stop10693-9" />
      <stop
         offset="1"
         style="stop-color:#000000;stop-opacity:0"
         id="stop10695-9" />
    </linearGradient>
    <linearGradient
       inkscape:collect="always"
       xlink:href="#linearGradient5048-7"
       id="linearGradient5274"
       gradientUnits="userSpaceOnUse"
       gradientTransform="matrix(0.10755066,0,0,0.10755066,-1.6365061,971.51883)"
       x1="82.85714"
       y1="483.79074"
       x2="62.85714"
       y2="272.36218" />
    <linearGradient
       id="linearGradient5048-7">
      <stop
         style="stop-color:#a9a9a9;stop-opacity:1;"
         offset="0"
         id="stop5050-7" />
      <stop
         style="stop-color:#ffffff;stop-opacity:1;"
         offset="1"
         id="stop5052-3" />
    </linearGradient>
    <linearGradient
       inkscape:collect="always"
       xlink:href="#linearGradient3752"
       id="linearGradient3758"
       x1="5.375"
       y1="1008.8622"
       x2="23.125"
       y2="1014.3622"
       gradientUnits="userSpaceOnUse"
       gradientTransform="matrix(1.0571968,0,0,0.99328607,-0.57223469,6.4950504)" />
    <linearGradient
       id="linearGradient3752">
      <stop
         style="stop-color:#868b7f;stop-opacity:1;"
         offset="0"
         id="stop3754" />
      <stop
         style="stop-color:#93988d;stop-opacity:1;"
         offset="1"
         id="stop3756" />
    </linearGradient>
    <linearGradient
       inkscape:collect="always"
       xlink:href="#linearGradient5336"
       id="linearGradient5342"
       x1="4.5338812"
       y1="1023.5061"
       x2="23.542774"
       y2="1023.5061"
       gradientUnits="userSpaceOnUse" />
    <linearGradient
       id="linearGradient5336">
      <stop
         style="stop-color:#204a87;stop-opacity:1;"
         offset="0"
         id="stop5338" />
      <stop
         style="stop-color:#2658a1;stop-opacity:1;"
         offset="1"
         id="stop5340" />
    </linearGradient>
    <linearGradient
       inkscape:collect="always"
       xlink:href="#linearGradient5064"
       id="linearGradient5294"
       x1="68.432838"
       y1="996.72101"
       x2="22.963083"
       y2="1025.6077"
       gradientUnits="userSpaceOnUse"
       spreadMethod="pad"
       gradientTransform="matrix(0.99138559,0,0,0.99138559,0.39247609,8.7194524)" />
    <linearGradient
       id="linearGradient5064">
      <stop
         style="stop-color:#ad1113;stop-opacity:1;"
         offset="0"
         id="stop5066" />
      <stop
         style="stop-color:#ea2d2f;stop-opacity:1;"
         offset="1"
         id="stop5068" />
    </linearGradient>
    <linearGradient
       inkscape:collect="always"
       xlink:href="#linearGradient3561"
       id="linearGradient5286"
       x1="46.094639"
       y1="991.86621"
       x2="45.917759"
       y2="1032.5216"
       gradientUnits="userSpaceOnUse"
       gradientTransform="matrix(0.99138559,0,0,0.99138559,0.39247609,8.7194524)" />
    <linearGradient
       id="linearGradient3561">
      <stop
         style="stop-color:#e54d4f;stop-opacity:1;"
         offset="0"
         id="stop3563" />
      <stop
         style="stop-color:#c71d1f;stop-opacity:1;"
         offset="1"
         id="stop3565" />
    </linearGradient>
    <linearGradient
       inkscape:collect="always"
       xlink:href="#linearGradient5320"
       id="linearGradient5326"
       x1="23.279085"
       y1="1008.6843"
       x2="68.062386"
       y2="1008.6843"
       gradientUnits="userSpaceOnUse"
       gradientTransform="matrix(0.98813312,0,0,1.0002835,0.45358064,-0.28594893)" />
    <linearGradient
       id="linearGradient5320">
      <stop
         style="stop-color:#2e3436;stop-opacity:1;"
         offset="0"
         id="stop5322" />
      <stop
         style="stop-color:#3d4548;stop-opacity:1;"
         offset="1"
         id="stop5324" />
    </linearGradient>
    <linearGradient
       inkscape:collect="always"
       xlink:href="#linearGradient5320"
       id="linearGradient5334"
       x1="23.279085"
       y1="1008.6843"
       x2="68.062386"
       y2="1008.6843"
       gradientUnits="userSpaceOnUse"
       gradientTransform="matrix(0.98813312,0,0,1.0002835,0.45358064,-0.28594893)" />
    <linearGradient
       id="linearGradient4196">
      <stop
         style="stop-color:#2e3436;stop-opacity:1;"
         offset="0"
         id="stop4198" />
      <stop
         style="stop-color:#3d4548;stop-opacity:1;"
         offset="1"
         id="stop4200" />
    </linearGradient>
    <linearGradient
       inkscape:collect="always"
       xlink:href="#linearGradient6621-5"
       id="linearGradient5317"
       gradientUnits="userSpaceOnUse"
       gradientTransform="matrix(0.10153351,0,0,0.10755066,-0.22624287,971.51883)"
       x1="250.25342"
       y1="384.7225"
       x2="381.33484"
       y2="261.48389" />
    <linearGradient
       id="linearGradient6621-5">
      <stop
         offset="0"
         style="stop-color:#ffffff;stop-opacity:1;"
         id="stop6622-2" />
      <stop
         offset="1"
         style="stop-color:#b4b4b4;stop-opacity:1;"
         id="stop6623-8" />
    </linearGradient>
    <linearGradient
       inkscape:collect="always"
       xlink:href="#linearGradient6621-5"
       id="linearGradient5314"
       gradientUnits="userSpaceOnUse"
       gradientTransform="matrix(0.10153351,0,0,0.10755066,-0.22624287,971.51883)"
       x1="525.62781"
       y1="374.7796"
       x2="623.49896"
       y2="266.6933" />
    <linearGradient
       id="linearGradient4207">
      <stop
         offset="0"
         style="stop-color:#ffffff;stop-opacity:1;"
         id="stop4209" />
      <stop
         offset="1"
         style="stop-color:#b4b4b4;stop-opacity:1;"
         id="stop4211" />
    </linearGradient>
    <linearGradient
       inkscape:collect="always"
       xlink:href="#linearGradient6621-5"
       id="linearGradient5311"
       gradientUnits="userSpaceOnUse"
       gradientTransform="matrix(0.10153351,0,0,0.10755066,-0.22624287,971.51883)"
       x1="421.76111"
       y1="381.15768"
       x2="496.73724"
       y2="256.90894" />
    <linearGradient
       id="linearGradient4214">
      <stop
         offset="0"
         style="stop-color:#ffffff;stop-opacity:1;"
         id="stop4216" />
      <stop
         offset="1"
         style="stop-color:#b4b4b4;stop-opacity:1;"
         id="stop4218" />
    </linearGradient>
    <filter
       inkscape:collect="always"
       id="filter3936">
      <feGaussianBlur
         inkscape:collect="always"
         stdDeviation="1.7420192"
         id="feGaussianBlur3938" />
    </filter>
  </defs>
  <sodipodi:namedview
     id="base"
     pagecolor="#ffffff"
     bordercolor="#666666"
     borderopacity="1.0"
     inkscape:pageopacity="0.0"
     inkscape:pageshadow="2"
     inkscape:zoom="2.8"
     inkscape:cx="125.24793"
     inkscape:cy="35.618477"
     inkscape:document-units="px"
     inkscape:current-layer="layer1"
     showgrid="false"
     inkscape:window-width="1680"
     inkscape:window-height="977"
     inkscape:window-x="0"
     inkscape:window-y="25"
     inkscape:window-maximized="1" />
  <metadata
     id="metadata7">
    <rdf:RDF>
      <cc:Work
         rdf:about="">
        <dc:format>image/svg+xml</dc:format>
        <dc:type
           rdf:resource="http://purl.org/dc/dcmitype/StillImage" />
        <dc:title />
      </cc:Work>
    </rdf:RDF>
  </metadata>
  <g
     inkscape:label="Layer 1"
     inkscape:groupmode="layer"
     id="layer1"
     transform="translate(0,-992.36217)">
    <path
       inkscape:connector-curvature="0"
       id="path3166"
       d="m 32.038918,1001.0297 c -10.37199,-0.2247 -19.720423,8.8131 -19.984046,19.1477 -0.677995,8.9273 5.178681,17.9826 13.87371,20.476 8.54352,2.7875 18.828939,-0.2661 23.76587,-7.9328 5.92105,-8.6289 3.896346,-21.7975 -4.716576,-27.8338 -3.6576,-2.7523 -8.365792,-3.9998 -12.938958,-3.8571 z m 193.789182,0.3837 c -2.42246,-0.016 -4.12257,1.9514 -5.06941,3.983 -3.02332,4.7269 -6.04664,9.4538 -9.06997,14.1807 -3.79304,-5.6671 -7.09086,-11.7115 -11.21704,-17.1207 -2.59099,-2.056 -7.23058,-1.0605 -8.00936,2.4108 -0.46935,2.9521 0.11551,6.0104 -0.1057,9.0129 0.0734,8.1505 -0.2622,16.3494 0.21393,24.4708 1.01709,3.5671 6.85454,3.91 8.18648,0.4133 1.15494,-2.9084 0.0855,-6.1305 0.46245,-9.1704 0,-3.5586 0,-7.1173 0,-10.6759 2.65048,3.8224 4.89393,8.0136 7.98969,11.4729 2.32179,1.7737 5.71372,0.1938 6.71523,-2.3346 2.04833,-3.0757 4.09667,-6.1513 6.145,-9.2268 0.0849,6.4614 -0.29235,12.9722 0.20664,19.4035 1.01031,3.65 6.94537,4.071 8.30454,0.5018 1.14535,-3.0364 0.10071,-6.3782 0.45262,-9.5443 -0.11623,-8.2161 0.29427,-16.4813 -0.21647,-24.6677 -0.59818,-2.1055 -2.89975,-3.2533 -4.98863,-3.1093 z m -111.25535,1.4169 c -2.86469,0.1525 -4.6025,3.2553 -4.1326,5.8939 -0.25018,0.6379 0.74016,2.281 -0.4723,2.0269 -3.49245,0.3939 -4.48837,5.903 -1.25945,7.4289 0.74422,0.6011 2.30585,0.1081 1.80668,1.5447 0.1699,5.4029 -0.55498,10.9273 0.48592,16.2549 1.13965,3.7784 5.25854,5.8615 9.05236,5.4511 2.68155,0.062 6.52678,-0.7209 7.01557,-3.8669 0.36898,-2.7165 -2.52962,-5.256 -5.13623,-4.2704 -1.58281,0.2731 -3.0265,-0.9603 -2.5398,-2.6369 -9.2e-4,-3.9748 -0.10001,-8.1356 0.0505,-11.9945 2.53614,0.1642 6.07305,0.5165 7.35012,-2.263 1.44905,-2.764 -1.33019,-6.2503 -4.33923,-5.7267 -1.00135,-0.16 -2.41241,0.4693 -3.20768,-0.1869 0.51094,-2.5549 0.31832,-6.0645 -2.45004,-7.2713 -0.68923,-0.3257 -1.46115,-0.4421 -2.22373,-0.3838 z m 155.6217,0 c -2.86399,0.1382 -4.61958,3.2568 -4.13259,5.8939 -0.18234,0.7733 0.73633,2.3546 -0.6494,2.0662 -3.4081,0.5383 -4.23916,5.9101 -1.08235,7.3896 0.72944,0.6035 2.32069,0.098 1.80668,1.5447 0.17354,5.3917 -0.55907,10.9094 0.47608,16.2253 1.14025,3.8422 5.29396,5.8868 9.13107,5.4906 2.59478,0.01 6.24888,-0.669 6.8975,-3.6407 0.55499,-2.7885 -2.36637,-5.5345 -5.09687,-4.4967 -1.4805,0.2583 -2.99225,-0.9452 -2.54229,-2.5189 0.0403,-4.0064 -0.15356,-8.2968 0.0923,-12.1223 2.54148,0.1678 6.10056,0.5059 7.33043,-2.322 1.40677,-2.7672 -1.37675,-6.1868 -4.3589,-5.6677 -1.00102,-0.1607 -2.41073,0.4703 -3.20768,-0.1869 0.51831,-2.5748 0.30911,-6.134 -2.52875,-7.3106 -0.66217,-0.3049 -1.40851,-0.3928 -2.13518,-0.3445 z m -237.36837,6.6319 c 6.500945,-0.067 11.684295,6.5537 10.951375,12.8504 -0.147831,5.9386 -5.63165,11.4032 -11.728697,10.8136 -6.12216,-0.056 -11.082832,-6.0034 -10.734907,-11.9944 -0.176906,-5.9212 4.770476,-11.8606 10.921858,-11.6401 0.196308,-0.015 0.393464,-0.027 0.590371,-0.029 z m 108.51014,0.669 c -8.02753,-0.1515 -14.58305,7.4673 -14.47392,15.2906 -0.41125,6.9422 4.14992,14.0043 11.07928,15.6153 5.62451,1.5212 12.50845,0.1817 16.17616,-4.5852 1.59889,-2.8186 -1.6574,-6.7474 -4.70328,-5.2838 -1.99335,0.9279 -3.6601,2.6963 -5.97258,2.7059 -3.09238,0.4466 -6.73029,-1.4842 -7.33044,-4.6148 3.57383,0.3777 7.18613,-0.098 10.79394,0.1378 2.5052,-0.2846 5.44845,0.6085 7.65514,-0.8954 2.6005,-2.2825 1.56272,-6.1562 0.68877,-9.0032 -2.06513,-5.6358 -7.80272,-9.7599 -13.91307,-9.3672 z m 155.61186,0 c -7.77414,-0.1349 -14.22981,7.0161 -14.43456,14.5822 -0.65718,6.9544 3.55947,14.2538 10.43973,16.1466 5.75825,1.8209 12.95452,0.4948 16.76652,-4.3785 1.65941,-2.8306 -1.71728,-6.8567 -4.75248,-5.274 -2.08267,1.0532 -3.91432,2.8263 -6.4252,2.7156 -2.97652,0.1719 -6.18524,-1.6642 -6.8483,-4.6737 3.58412,0.3972 7.20594,-0.093 10.82346,0.1476 2.44089,-0.2402 5.2359,0.5142 7.44851,-0.7478 2.72347,-1.9999 1.86658,-5.8478 1.08234,-8.6194 -1.90393,-5.9063 -7.78304,-10.3044 -14.10002,-9.8986 z m -202.428264,0.1082 c -5.19876,-0.1523 -10.644369,3.8774 -10.636513,9.318 -0.330158,3.7102 2.111193,7.185 5.549483,8.4424 3.00202,1.5341 6.86451,1.5125 9.29834,4.0046 0.25266,1.7213 -2.13027,2.1321 -3.4143,1.9482 -3.03062,0.016 -5.58557,-1.9007 -8.2652,-3.0207 -3.237578,-0.7682 -6.013633,3.7202 -3.699657,6.1694 2.550837,2.5596 6.294167,3.7121 9.807477,4.2707 5.11622,0.8053 11.524244,-0.9925 13.423614,-6.2779 1.5196,-3.9142 0.15251,-8.9254 -3.78821,-10.794 -3.212494,-2.1371 -7.499614,-2.1856 -10.469244,-4.5951 -0.37134,-1.6188 1.88418,-2.135 3.11912,-1.9088 2.83181,0.01 5.199064,2.4129 8.029054,2.1745 3.08082,-0.5058 4.35898,-5.2398 1.4956,-6.8778 -2.98166,-2.1337 -6.838454,-2.8374 -10.449564,-2.8535 z m 78.735784,0.099 c -2.35313,-0.1042 -4.54386,1.6606 -5.91355,3.1289 -0.95658,-3.0834 -5.48234,-4.2295 -7.55675,-1.6432 -2.12401,2.5824 -0.75924,6.1705 -1.13154,9.2 0.14081,5.7932 -0.3426,11.6518 0.24599,17.406 1.14868,3.7171 7.36027,3.7082 8.33407,-0.1181 0.80704,-2.9261 0.0324,-6.0116 0.24598,-9.0031 -0.15476,-3.8372 1.08388,-8.5143 5.1559,-9.8493 2.28909,-0.37 4.88634,-1.593 5.04767,-4.2114 0.29774,-2.5201 -1.77832,-5.1571 -4.42777,-4.9098 z m 73.55034,0.019 c -3.44568,0.4058 -7.51704,0.5198 -10.10518,3.1289 -2.07294,2.7366 1.00588,7.2987 4.33923,5.9431 3.44715,-0.9071 7.99786,-2.2549 10.83329,0.6986 0.48024,0.5518 0.93012,1.4754 0.81669,2.0762 -4.71748,-1.197 -10.20947,-1.2799 -14.49361,1.2987 -6.02812,3.36 -5.75026,13.5475 0.49198,16.5304 4.4728,2.3986 10.39456,2.0206 14.39521,-1.1217 1.51376,3.5006 7.76271,2.9141 8.23567,-1.0134 0.38677,-4.9451 -0.006,-9.9147 0.16727,-14.8675 0.017,-4.5637 -2.03638,-9.5183 -6.46456,-11.3745 -2.56227,-1.1561 -5.42643,-1.4184 -8.21599,-1.2988 z m -168.157257,0.019 c -3.359015,0.4626 -4.241516,4.3583 -5.096867,7.0647 -1.580802,3.8139 -2.962206,7.7661 -4.447459,11.6402 -2.470621,-5.7196 -4.360575,-11.7852 -7.300918,-17.2782 -2.124191,-2.5592 -6.807807,-1.4861 -7.468189,1.8203 -0.792378,2.9524 1.762778,5.4254 2.539149,8.1114 2.581699,5.9173 5.417345,11.8213 7.841536,17.7469 -0.582511,1.6497 -2.555329,2.7147 -4.201472,1.8104 -2.345717,-0.9048 -5.517805,0.2753 -5.756113,3.0306 -0.346631,2.49 1.806846,4.5697 4.171952,4.8213 4.547929,1.3336 10.191467,-0.2538 12.281663,-4.778 3.208669,-5.6739 5.094803,-12.0237 7.80078,-17.9512 1.504538,-3.8617 3.563408,-7.5853 4.486817,-11.6205 0.12933,-2.5365 -2.378243,-4.6681 -4.850879,-4.4179 z m 63.209027,7.4583 c 2.71261,-0.097 4.87336,2.3204 5.39206,4.8017 -3.70365,-0.089 -7.71979,0.1711 -11.23673,-0.1181 0.7368,-2.6125 3.01923,-4.8647 5.84467,-4.6836 z m 155.62171,0 c 2.70507,-0.09 4.85924,2.318 5.39205,4.8017 -3.71766,-0.069 -7.66652,0.1309 -11.24656,-0.088 0.71318,-2.6074 3.00205,-4.9022 5.85451,-4.7131 z m -49.94536,10.1643 c 1.8019,0.051 3.91944,0.067 5.43141,0.8855 0.37484,3.0564 -2.46891,5.5837 -5.40189,5.5101 -2.17678,0.419 -5.34027,-0.7519 -5.00831,-3.3848 0.38625,-2.2177 2.98085,-3.0986 4.97879,-3.0108 z"
       style="font-size:167.00819397px;font-style:normal;font-weight:normal;line-height:125%;letter-spacing:0px;word-spacing:0px;fill:#000000;fill-opacity:1;stroke:none;filter:url(#filter3936);font-family:Sans"
       transform="matrix(0.87456221,0,0,0.87456221,-1.690036,128.61257)" />
    <path
       style="font-size:167.00819397px;font-style:normal;font-weight:normal;line-height:125%;letter-spacing:0px;word-spacing:0px;fill:#ffffff;fill-opacity:1;stroke:none;font-family:Sans"
       d="m 26.329991,1004.0753 c -9.07095,-0.1965 -17.246737,7.7076 -17.477291,16.7459 -0.592949,7.8075 4.529078,15.7269 12.133422,17.9075 7.47184,2.4378 16.467079,-0.2327 20.784732,-6.9377 5.178326,-7.5465 3.407597,-19.0633 -4.124939,-24.3424 -3.198799,-2.4071 -7.316406,-3.4981 -11.315924,-3.3733 z m 169.480699,0.3356 c -2.1186,-0.014 -3.60545,1.7066 -4.43352,3.4834 -2.64408,4.1339 -5.28816,8.2679 -7.93225,12.4019 -3.31725,-4.9563 -6.2014,-10.2425 -9.81,-14.9731 -2.26598,-1.7981 -6.32359,-0.9275 -7.00468,2.1083 -0.41048,2.5818 0.10102,5.2565 -0.0924,7.8824 0.0642,7.1281 -0.22931,14.2986 0.1871,21.4012 0.88951,3.1197 5.99472,3.4196 7.15959,0.3615 1.01006,-2.5436 0.0748,-5.3615 0.40444,-8.0201 0,-3.1122 0,-6.2245 0,-9.3367 2.31801,3.3429 4.28004,7.0084 6.98748,10.0337 2.03055,1.5512 4.997,0.1695 5.87288,-2.0417 1.7914,-2.6899 3.5828,-5.3797 5.37419,-8.0694 0.0743,5.6509 -0.25568,11.345 0.18072,16.9695 0.88358,3.1922 6.07416,3.5604 7.26284,0.4389 1.00168,-2.6555 0.0881,-5.5781 0.39584,-8.3471 -0.10165,-7.1855 0.25736,-14.4139 -0.18932,-21.5734 -0.52314,-1.8414 -2.53601,-2.8453 -4.36286,-2.7193 z m -97.29973,1.2392 c -2.50535,0.1333 -4.02517,2.8469 -3.61421,5.1545 -0.2188,0.5579 0.64731,1.9949 -0.41306,1.7727 -3.05436,0.3445 -3.92536,5.1625 -1.10147,6.497 0.65087,0.5257 2.01661,0.095 1.58006,1.351 0.14858,4.7251 -0.48537,9.5566 0.42496,14.2159 0.9967,3.3044 4.59892,5.1262 7.91686,4.7673 2.34518,0.054 5.70807,-0.6305 6.13555,-3.3818 0.32269,-2.3758 -2.21231,-4.5967 -4.49195,-3.7348 -1.38427,0.2389 -2.64687,-0.8398 -2.22122,-2.3061 -8e-4,-3.4762 -0.0875,-7.1151 0.0442,-10.4899 2.21801,0.1436 5.31126,0.4517 6.42813,-1.9792 1.26729,-2.4173 -1.16333,-5.4663 -3.79492,-5.0083 -0.87574,-0.14 -2.1098,0.4104 -2.80532,-0.1635 0.44685,-2.2344 0.27839,-5.3038 -2.14271,-6.3592 -0.60277,-0.2848 -1.27787,-0.3866 -1.94479,-0.3356 z m 136.10086,0 c -2.50474,0.1208 -4.04011,2.8482 -3.61421,5.1545 -0.15947,0.6763 0.64397,2.0593 -0.56794,1.8071 -2.98059,0.4707 -3.70741,5.1687 -0.94658,6.4626 0.63794,0.5278 2.02959,0.086 1.58005,1.351 0.15177,4.7153 -0.48894,9.5409 0.41636,14.19 0.99722,3.3602 4.6299,5.1484 7.98569,4.8019 2.2693,0.01 5.46504,-0.5851 6.0323,-3.1841 0.48537,-2.4387 -2.06954,-4.8402 -4.45753,-3.9326 -1.29479,0.2259 -2.61691,-0.8266 -2.22339,-2.2029 0.0352,-3.5039 -0.1343,-7.2561 0.0807,-10.6017 2.22268,0.1467 5.33532,0.4424 6.41091,-2.0308 1.23031,-2.4201 -1.20405,-5.4107 -3.81212,-4.9567 -0.87546,-0.1406 -2.10834,0.4113 -2.80532,-0.1635 0.45329,-2.2518 0.27034,-5.3646 -2.21155,-6.3936 -0.57911,-0.2666 -1.23183,-0.3435 -1.86735,-0.3012 z m -207.593407,5.8 c 5.685481,-0.059 10.218643,5.7316 9.577659,11.2384 -0.129288,5.1937 -4.925228,9.9728 -10.257475,9.4572 -5.35421,-0.049 -9.692626,-5.2503 -9.388344,-10.4898 -0.154716,-5.1785 4.172078,-10.3729 9.551844,-10.18 0.171684,-0.013 0.344109,-0.024 0.516316,-0.025 z m 94.898867,0.585 c -7.02057,-0.1325 -12.75378,6.5307 -12.65834,13.3726 -0.35967,6.0714 3.62936,12.2477 9.68952,13.6566 4.91898,1.3304 10.93941,0.1589 14.14706,-4.0101 1.39832,-2.465 -1.4495,-5.901 -4.11332,-4.621 -1.7433,0.8115 -3.20098,2.3581 -5.22339,2.3665 -2.70448,0.3906 -5.88606,-1.298 -6.41092,-4.0359 3.12553,0.3303 6.28471,-0.086 9.43997,0.1205 2.19095,-0.2489 4.76501,0.5322 6.69489,-0.7831 2.2743,-1.9962 1.3667,-5.384 0.60238,-7.8739 -1.80609,-4.9288 -6.82397,-8.5356 -12.16785,-8.1922 z m 136.09225,0 c -6.79897,-0.1179 -12.44485,6.1361 -12.62392,12.7531 -0.57474,6.082 3.11298,12.4658 9.1302,14.1212 5.03594,1.5925 11.32953,0.4327 14.66336,-3.8293 1.45126,-2.4755 -1.50187,-5.9966 -4.15634,-4.6124 -1.82142,0.9211 -3.42332,2.4718 -5.61924,2.3749 -2.60315,0.1504 -5.40937,-1.4554 -5.98926,-4.0874 3.13454,0.3474 6.30204,-0.081 9.46579,0.1291 2.13471,-0.2101 4.57912,0.4497 6.51418,-0.654 2.38185,-1.749 1.63244,-5.1143 0.94658,-7.5382 -1.66511,-5.1654 -6.80676,-9.0119 -12.33135,-8.657 z m -177.03611,0.095 c -4.546636,-0.1332 -9.30916,3.391 -9.302289,8.1491 -0.288744,3.2448 1.846369,6.2838 4.853368,7.3834 2.625451,1.3417 6.003441,1.3228 8.131981,3.5023 0.22096,1.5054 -1.86306,1.8647 -2.98602,1.7038 -2.65047,0.014 -4.88493,-1.6622 -7.228434,-2.6417 -2.831463,-0.6719 -5.259296,3.2535 -3.23558,5.3955 2.230866,2.2385 5.504641,3.2464 8.577244,3.735 4.47446,0.7043 10.07867,-0.868 11.73979,-5.4904 1.32899,-3.4233 0.13338,-7.8059 -3.31302,-9.4401 -2.80953,-1.869 -6.55888,-1.9114 -9.15601,-4.0187 -0.32476,-1.4157 1.64783,-1.8672 2.72786,-1.6693 2.4766,0.01 4.54691,2.1102 7.02191,1.9017 2.69437,-0.4424 3.8122,-4.5825 1.308,-6.0151 -2.60765,-1.866 -5.98066,-2.4814 -9.1388,-2.4955 z m 68.85934,0.087 c -2.05795,-0.091 -3.97388,1.4523 -5.17176,2.7364 -0.83659,-2.6967 -4.79465,-3.699 -6.60885,-1.4371 -1.85758,2.2585 -0.664,5.3965 -0.9896,8.046 0.12314,5.0665 -0.29963,10.1902 0.21513,15.2226 1.00459,3.2508 6.43701,3.243 7.28866,-0.1033 0.70581,-2.559 0.0283,-5.2575 0.21513,-7.8738 -0.13535,-3.3558 0.94792,-7.4462 4.50915,-8.6138 2.00195,-0.3236 4.27341,-1.3932 4.4145,-3.6831 0.2604,-2.204 -1.55525,-4.5102 -3.87236,-4.2939 z m 64.32435,0.017 c -3.01346,0.3549 -6.57412,0.4546 -8.83761,2.7364 -1.81291,2.3933 0.87971,6.3832 3.79493,5.1976 3.01475,-0.7933 6.99463,-1.9721 9.47439,0.611 0.42,0.4826 0.81344,1.2903 0.71424,1.8157 -4.12573,-1.0468 -8.92881,-1.1193 -12.67556,1.1358 -5.27197,2.9386 -5.02896,11.8482 0.43027,14.4569 3.91174,2.0977 9.09069,1.7671 12.5895,-0.981 1.32388,3.0615 6.78898,2.5486 7.20261,-0.8863 0.33825,-4.3248 -0.005,-8.671 0.14629,-13.0025 0.0149,-3.9913 -1.78094,-8.3244 -5.65366,-9.9477 -2.24087,-1.0111 -4.74575,-1.2405 -7.1854,-1.1359 z m -147.06398,0.017 c -2.937668,0.4046 -3.70947,3.8116 -4.457527,6.1785 -1.38251,3.3355 -2.590634,6.7919 -3.88958,10.1801 -2.160712,-5.0022 -3.813594,-10.3069 -6.385107,-15.1109 -1.857737,-2.2382 -5.95385,-1.2997 -6.531396,1.592 -0.692983,2.582 1.541659,4.7448 2.220644,7.0939 2.257857,5.1751 4.737805,10.3385 6.857911,15.5208 -0.509442,1.4427 -2.234794,2.3742 -3.674448,1.5833 -2.051476,-0.7913 -4.825664,0.2408 -5.034079,2.6504 -0.303151,2.1777 1.580199,3.9965 3.648631,4.2166 3.977447,1.1663 8.913072,-0.222 10.741079,-4.1787 2.80618,-4.9622 4.455722,-10.5155 6.822267,-15.6994 1.315812,-3.3773 3.116422,-6.6339 3.924,-10.1629 0.113108,-2.2183 -2.079921,-4.0825 -4.242395,-3.8637 z m 55.28023,6.5227 c 2.37234,-0.085 4.26205,2.0294 4.71569,4.1994 -3.23907,-0.078 -6.75144,0.1497 -9.82722,-0.1033 0.64438,-2.2848 2.6405,-4.2544 5.11153,-4.0961 z m 136.10086,0 c 2.36575,-0.079 4.24971,2.0273 4.71569,4.1994 -3.25133,-0.06 -6.70485,0.1145 -9.83582,-0.077 0.62372,-2.2804 2.62548,-4.2873 5.12013,-4.1219 z m -43.68032,8.8893 c 1.57587,0.045 3.42779,0.059 4.7501,0.7745 0.32782,2.673 -2.15921,4.8833 -4.72428,4.8189 -1.90373,0.3664 -4.6704,-0.6576 -4.38008,-2.9602 0.3378,-1.9395 2.60694,-2.7099 4.35426,-2.6332 z"
       id="text3156"
       inkscape:connector-curvature="0" />
  </g>
</svg>
