<?xml version="1.0" encoding="UTF-8" standalone="no"?>
<!-- Created with Inkscape (http://www.inkscape.org/) -->

<svg
   xmlns:dc="http://purl.org/dc/elements/1.1/"
   xmlns:cc="http://creativecommons.org/ns#"
   xmlns:rdf="http://www.w3.org/1999/02/22-rdf-syntax-ns#"
   xmlns:svg="http://www.w3.org/2000/svg"
   xmlns="http://www.w3.org/2000/svg"
   xmlns:xlink="http://www.w3.org/1999/xlink"
   xmlns:sodipodi="http://sodipodi.sourceforge.net/DTD/sodipodi-0.dtd"
   xmlns:inkscape="http://www.inkscape.org/namespaces/inkscape"
   width="500"
   height="100"
   id="svg2"
   version="1.1"
   inkscape:version="0.48.0 r9654"
   sodipodi:docname="title_large.svg"
   inkscape:export-filename="/home/andy/usr/projects/oystermate/res/drawable-mdpi/title.png"
   inkscape:export-xdpi="60.299999"
   inkscape:export-ydpi="60.299999">
  <defs
     id="defs4">
    <linearGradient
       id="linearGradient4156">
      <stop
         style="stop-color:#ffffff;stop-opacity:0.44736841;"
         offset="0"
         id="stop4158" />
      <stop
         style="stop-color:#ffffff;stop-opacity:0;"
         offset="1"
         id="stop4160" />
    </linearGradient>
    <filter
       id="filter3784"
       inkscape:label="Cutout"
       x="0"
       y="0"
       width="1"
       height="1"
       inkscape:menu="Shadows and Glows"
       inkscape:menu-tooltip="Drop shadow under the cut-out of the shape"
       color-interpolation-filters="sRGB">
      <feGaussianBlur
         id="feGaussianBlur3786"
         in="SourceAlpha"
         stdDeviation="4.2" />
      <feOffset
         id="feOffset3788"
         dy="5"
         dx="5"
         result="result91" />
      <feComposite
         id="feComposite3790"
         in2="result91"
         operator="out"
         in="SourceGraphic" />
    </filter>
    <filter
       id="filter3792"
       inkscape:label="Cutout"
       x="0"
       y="0"
       width="1"
       height="1"
       inkscape:menu="Shadows and Glows"
       inkscape:menu-tooltip="Drop shadow under the cut-out of the shape"
       color-interpolation-filters="sRGB">
      <feGaussianBlur
         id="feGaussianBlur3794"
         in="SourceAlpha"
         stdDeviation="4.2" />
      <feOffset
         id="feOffset3796"
         dy="5"
         dx="5"
         result="result91" />
      <feComposite
         id="feComposite3798"
         in2="result91"
         operator="out"
         in="SourceGraphic" />
    </filter>
    <radialGradient
       inkscape:collect="always"
       xlink:href="#linearGradient4156"
       id="radialGradient4162"
       cx="38.890873"
       cy="21.441866"
       fx="38.890873"
       fy="21.441866"
       r="46.909035"
       gradientTransform="matrix(1,0,0,0.61803401,0,8.1900636)"
       gradientUnits="userSpaceOnUse" />
    <radialGradient
       inkscape:collect="always"
       xlink:href="#linearGradient4156"
       id="radialGradient4231"
       cx="37"
       cy="983.36218"
       fx="37"
       fy="983.36218"
       r="34"
       gradientTransform="matrix(1.7386034,-2.2147958e-7,1.0275394e-7,0.80661315,-27.32842,190.16902)"
       gradientUnits="userSpaceOnUse" />
    <radialGradient
       inkscape:collect="always"
       xlink:href="#linearGradient4156"
       id="radialGradient4248"
       gradientUnits="userSpaceOnUse"
       gradientTransform="matrix(1.7401295,0,0,0.67954731,-31.675156,-12.076374)"
       cx="38.890873"
       cy="21.441866"
       fx="38.890873"
       fy="21.441866"
       r="46.909035" />
    <radialGradient
       r="46.909035"
       fy="21.441866"
       fx="38.890873"
       cy="21.441866"
       cx="38.890873"
       gradientTransform="matrix(1.7401295,0,0,0.67954731,-31.675156,-12.076374)"
       gradientUnits="userSpaceOnUse"
       id="radialGradient4248-1"
       xlink:href="#linearGradient4156-8"
       inkscape:collect="always" />
    <radialGradient
       gradientUnits="userSpaceOnUse"
       gradientTransform="matrix(1.7386034,-2.2147958e-7,1.0275394e-7,0.80661315,-27.32842,190.16902)"
       r="34"
       fy="983.36218"
       fx="37"
       cy="983.36218"
       cx="37"
       id="radialGradient4231-5"
       xlink:href="#linearGradient4156-8"
       inkscape:collect="always" />
    <radialGradient
       gradientUnits="userSpaceOnUse"
       gradientTransform="matrix(1,0,0,0.61803401,0,8.1900636)"
       r="46.909035"
       fy="21.441866"
       fx="38.890873"
       cy="21.441866"
       cx="38.890873"
       id="radialGradient4162-0"
       xlink:href="#linearGradient4156-8"
       inkscape:collect="always" />
    <filter
       color-interpolation-filters="sRGB"
       inkscape:menu-tooltip="Drop shadow under the cut-out of the shape"
       inkscape:menu="Shadows and Glows"
       height="1"
       width="1"
       y="0"
       x="0"
       inkscape:label="Cutout"
       id="filter3792-8">
      <feGaussianBlur
         stdDeviation="4.2"
         in="SourceAlpha"
         id="feGaussianBlur3794-0" />
      <feOffset
         result="result91"
         dx="5"
         dy="5"
         id="feOffset3796-2" />
      <feComposite
         in="SourceGraphic"
         operator="out"
         in2="result91"
         id="feComposite3798-1" />
    </filter>
    <filter
       color-interpolation-filters="sRGB"
       inkscape:menu-tooltip="Drop shadow under the cut-out of the shape"
       inkscape:menu="Shadows and Glows"
       height="1"
       width="1"
       y="0"
       x="0"
       inkscape:label="Cutout"
       id="filter3784-8">
      <feGaussianBlur
         stdDeviation="4.2"
         in="SourceAlpha"
         id="feGaussianBlur3786-9" />
      <feOffset
         result="result91"
         dx="5"
         dy="5"
         id="feOffset3788-3" />
      <feComposite
         in="SourceGraphic"
         operator="out"
         in2="result91"
         id="feComposite3790-6" />
    </filter>
    <linearGradient
       id="linearGradient4156-8">
      <stop
         id="stop4158-1"
         offset="0"
         style="stop-color:#ffffff;stop-opacity:0.44736841;" />
      <stop
         id="stop4160-2"
         offset="1"
         style="stop-color:#ffffff;stop-opacity:0;" />
    </linearGradient>
    <radialGradient
       inkscape:collect="always"
       xlink:href="#linearGradient4156-8"
       id="radialGradient3087"
       gradientUnits="userSpaceOnUse"
       gradientTransform="matrix(1.7386034,-2.2147958e-7,1.0275394e-7,0.80661315,-404.5928,131.74436)"
       cx="37"
       cy="983.36218"
       fx="37"
       fy="983.36218"
       r="34" />
    <radialGradient
       inkscape:collect="always"
       xlink:href="#linearGradient4156-8"
       id="radialGradient3090"
       gradientUnits="userSpaceOnUse"
       gradientTransform="matrix(1.7401295,0,0,0.67954731,-489.18954,890.36115)"
       cx="38.890873"
       cy="21.441866"
       fx="38.890873"
       fy="21.441866"
       r="46.909035" />
    <filter
       inkscape:collect="always"
       id="filter3988">
      <feGaussianBlur
         inkscape:collect="always"
         stdDeviation="1.3955338"
         id="feGaussianBlur3990" />
    </filter>
  </defs>
  <sodipodi:namedview
     id="base"
     pagecolor="#ffffff"
     bordercolor="#666666"
     borderopacity="1.0"
     inkscape:pageopacity="0.0"
     inkscape:pageshadow="2"
     inkscape:zoom="1.4142136"
     inkscape:cx="210.71773"
     inkscape:cy="77.676974"
     inkscape:document-units="px"
     inkscape:current-layer="layer1"
     showgrid="false"
     inkscape:window-width="1482"
     inkscape:window-height="921"
     inkscape:window-x="0"
     inkscape:window-y="25"
     inkscape:window-maximized="0"
     fit-margin-top="0"
     fit-margin-left="0"
     fit-margin-right="0"
     fit-margin-bottom="0" />
  <metadata
     id="metadata7">
    <rdf:RDF>
      <cc:Work
         rdf:about="">
        <dc:format>image/svg+xml</dc:format>
        <dc:type
           rdf:resource="http://purl.org/dc/dcmitype/StillImage" />
        <dc:title />
      </cc:Work>
    </rdf:RDF>
  </metadata>
  <g
     inkscape:label="Layer 1"
     inkscape:groupmode="layer"
     id="layer1"
     transform="translate(185.51439,-860.6875)">
    <path
       inkscape:connector-curvature="0"
       id="path3974"
       d="m -144.8125,873.90625 c -18.3191,-0.035 -33.41525,17.78907 -30.96875,35.84375 1.16497,17.23984 17.92973,30.88242 35.125,28.8125 17.82418,-0.44242 32.50399,-18.02585 30.0625,-35.71875 -1.17916,-17.10645 -17.14777,-30.44367 -34.21875,-28.9375 z m 257.25,0.65625 c -6.44998,0.4023 -7.47783,8.1421 -6.53125,13.1875 0.38485,15.24963 -0.71134,30.69197 0.4375,45.84375 2.29746,7.19724 14.18056,4.96639 13.71875,-2.5625 0,-9.53125 0,-19.0625 0,-28.59375 5.03802,5.90138 7.50177,14.40517 13.90625,18.9375 6.51929,2.87645 10.37826,-5.36739 13.08787,-9.69164 3.40917,-5.18025 7.86204,-13.81323 6.25588,-2.40211 0.74899,8.23545 -1.38455,16.97358 0.8125,24.96875 3.01353,6.56721 14.00047,3.89847 13.53125,-3.3125 -0.25466,-17.10796 0.47986,-34.32622 -0.3125,-51.375 -2.14794,-7.09568 -13.20817,-6.47554 -15.45157,0.27927 -5.03698,7.88608 -10.07395,15.77215 -15.11093,23.65823 -6.25623,-8.95981 -11.20308,-19.05781 -18.09375,-27.46875 -1.74369,-1.42475 -4.07797,-1.65056 -6.25,-1.46875 z m -117.5,2.1875 c -6.459436,0.28489 -7.132779,8.26478 -6.84375,12.59375 -6.773647,0.25819 -7.676506,11.05384 -1.0625,12.46875 3.6531049,1.36861 0.271448,8.70864 1.4375,12.21875 -0.238987,7.90684 -1.416145,19.77327 7.875,23.1875 5.609817,1.76327 13.838113,2.22835 17.75,-2.8125 3.034681,-5.05058 -2.724432,-11.07342 -8.03125,-9.09375 -5.91468227,0.18064 -2.6055922,-8.14576 -3.4375,-11.53125 0.3140581,-5.73803 -2.45308321,-14.55725 6.40625,-11.75 6.66737,-0.0164 8.201939,-10.35483 1.84375,-12.3125 -3.6035741,-1.37368 -10.09407552,1.81121 -8.25,-4.40625 0.7372605,-4.50094 -2.99065623,-9.1028 -7.6875,-8.5625 z m 240,0 c -6.11717,0.41208 -7.49683,7.63265 -6.46875,12.5625 -6.9759,-0.10815 -8.25897,11.06785 -1.40625,12.5 3.60751,1.40465 0.24156,8.71708 1.40625,12.21875 -0.21327,7.91064 -1.40646,19.8095 7.90625,23.1875 5.63092,1.80062 14.12182,2.20411 17.8125,-2.96875 2.86756,-5.04509 -2.87468,-10.87227 -8.09375,-8.9375 -5.55725,0.29818 -2.86849,-7.51032 -3.46875,-10.625 0.72482,-5.48351 -3.05191,-15.46858 5.96875,-12.65625 6.8685,0.48875 8.95124,-10.25893 2.3125,-12.3125 -3.60827,-1.37642 -10.12639,1.82069 -8.28125,-4.40625 0.74409,-4.52422 -2.96806,-9.10525 -7.6875,-8.5625 z M -143.25,887.34375 c 14.21362,-0.67777 22.55308,17.29963 15.5625,28.84375 -6.189,12.25963 -26.01921,11.56255 -31.4375,-1 -5.8988,-11.79581 1.56277,-28.33508 15.875,-27.84375 z m 182.71875,1.0625 c -15.042978,0.15344 -25.199801,16.48414 -22,30.46875 2.417424,19.28349 29.412996,26.36477 42.25,12.6875 4.435924,-4.87814 -2.213,-12.76289 -7.6875,-9.21875 -5.726361,5.78368 -17.859287,5.60406 -20.3125,-3.25 9.235692,-0.49585 18.78267,0.89532 27.875,-0.5 6.907893,-3.35319 3.846139,-12.66482 1.40625,-18.0625 -3.968953,-7.87313 -12.736644,-12.75908 -21.53125,-12.125 z m 240.03125,0 c -14.5655,0.13862 -24.72456,15.54085 -22.1875,29.21875 1.1589,14.00341 16.03,23.59508 29.40625,20.625 5.708,-1.35699 14.24347,-4.16073 14.34375,-11.1875 -0.30363,-5.88163 -8.16418,-7.12385 -11.5,-2.96875 -5.79082,4.16713 -15.79062,2.6081 -17.8125,-5 9.25621,-0.5283 18.82627,0.9536 27.9375,-0.53125 6.7768,-3.44397 3.80264,-12.56618 1.34375,-17.9375 C 297.1475,892.7001 288.30632,887.76644 279.5,888.40625 z M -40.4375,888.625 c -9.62105,-0.0375 -18.196177,9.222 -15.625,18.90625 2.168639,9.94891 14.081459,10.4649 21.625,14.25 3.858158,1.24482 0.467873,5.44082 -2.4375,4.625 -5.959044,0.90175 -10.183679,-3.91779 -15.5625,-4.875 -6.619163,-0.33724 -8.403439,9.78786 -2.3125,11.96875 9.602897,6.25907 25.232527,7.8747 32.9375,-2.125 4.98963,-7.01301 2.447669,-18.1122 -5.875,-21.15625 -4.648983,-2.93481 -11.661026,-2.74063 -15.34375,-6.8125 0.601001,-4.50745 7.466259,-2.58171 10.3125,-1.5 3.519065,2.53013 9.94621,3.56867 12,-1.46875 2.461373,-5.69304 -3.874636,-9.33204 -8.46875,-10.375 -3.615019,-1.15986 -7.439433,-1.71567 -11.25,-1.4375 z M 92.875,888.75 c -3.595934,0.0689 -6.763526,2.75831 -8.90625,5.0625 -1.730079,-6.96396 -12.922932,-6.31488 -13.75,0.84375 0.04609,12.79263 -0.535537,25.73222 0.21875,38.46875 1.732967,7.27459 13.626577,5.97044 13.8125,-1.46875 0.857544,-8.93955 -2.901869,-21.61799 6.21875,-27.46875 3.789441,-1.71966 9.76838,-2.17439 9.96875,-7.65625 0.70513,-4.39079 -3.142093,-8.33338 -7.5625,-7.78125 z m 103.28125,0 c -5.83577,0.64264 -13.48561,0.47535 -17.34375,5.5625 -3.29834,5.75179 4.16709,11.87346 9.46875,8.28125 5.05439,-2.14754 16.31521,-1.71374 16.0625,4.9375 -10.13552,-2.49112 -24.94284,-1.56097 -28.96875,9.84375 -3.28543,8.77111 2.50102,19.16566 11.84375,20.65625 6.16068,1.34524 13.15103,0.24185 18.0625,-3.71875 2.79271,6.36662 13.81742,4.02878 13.34375,-3.125 -0.82191,-13.55713 4.8122,-35.37999 -12.28125,-41.125 -3.2535,-1.11914 -6.75508,-1.40046 -10.1875,-1.3125 z M -99.875,888.8437 c -6.41676,0.27102 -8.0862,8.50874 -4.39865,12.89414 4.899376,11.1395 10.158076,22.27855 14.83615,33.41836 -1.312032,4.53091 -6.19224,3.50099 -9.625,2.5 -6.78386,-0.60341 -8.6636,10.14178 -2.25,12.09375 8.427298,3.87162 19.443991,0.84239 23.09375,-8.0625 6.512476,-14.65353 12.778826,-29.62031 18.53125,-44.59375 1.906163,-6.79055 -8.133356,-11.39721 -12.09375,-5.65625 -4.395896,8.60637 -6.861521,18.24253 -10.625,27.1875 -4.279325,-9.03879 -6.695245,-19.22819 -11.875,-27.71875 -1.393365,-1.53658 -3.529859,-2.2865 -5.59375,-2.0625 z m 140.5,11.84375 c 4.471341,-0.27915 8.113889,3.49226 8.875,7.6875 -5.713244,-0.31751 -13.188409,0.63174 -17.8125,-0.46875 1.117968,-3.93847 4.622094,-7.36492 8.9375,-7.21875 z m 240.03125,0 c 4.44315,-0.26029 8.08527,3.48034 8.84375,7.6875 -5.73627,-0.29762 -13.04566,0.59136 -17.8125,-0.4375 1.12958,-3.97298 4.62531,-7.38936 8.96875,-7.25 z m -84.25,16.21875 c 3.206,0.36516 10.21298,-0.73307 8.375,4.375 -1.67616,6.3609 -12.58138,8.34261 -16.0625,2.75 -1.62959,-4.81823 3.5649,-7.31517 7.6875,-7.125 z"
       style="font-size:83.93989563px;font-style:normal;font-variant:normal;font-weight:normal;font-stretch:normal;line-height:80.00000119%;letter-spacing:-8.7282629px;word-spacing:0px;fill:#000000;fill-opacity:1;stroke:none;filter:url(#filter3988);font-family:Gotham Rounded;-inkscape-font-specification:Gotham Rounded"
       transform="matrix(0.94967858,0,0,0.94967858,-13.127439,46.630246)" />
    <path
       style="font-size:83.93989563px;font-style:normal;font-variant:normal;font-weight:normal;font-stretch:normal;line-height:80.00000119%;letter-spacing:-8.7282629px;word-spacing:0px;fill:#ffffff;fill-opacity:1;stroke:none;font-family:Gotham Rounded;-inkscape-font-specification:Gotham Rounded"
       d="m -150.65277,876.5603 c -17.39726,-0.0332 -31.73375,16.8939 -29.41036,34.04004 1.10635,16.37231 17.02748,29.32837 33.35746,27.36261 16.92724,-0.42015 30.86835,-17.11876 28.54971,-33.92133 -1.11982,-16.24563 -16.28487,-28.9117 -32.49681,-27.48132 z m 244.30481,0.62322 c -6.12541,0.38206 -7.10153,7.73238 -6.20259,12.52389 0.36549,14.48225 -0.67554,29.14751 0.41549,43.53683 2.18185,6.83506 13.46697,4.71647 13.0284,-2.43355 0,-9.05163 0,-18.10325 0,-27.15488 4.7845,5.60442 7.12427,13.68029 13.20647,17.98454 6.19123,2.7317 9.85601,-5.09729 12.42927,-9.20394 3.23762,-4.91957 7.46641,-13.11813 5.94107,-2.28123 0.7113,7.82103 -1.31487,16.11944 0.77162,23.71228 2.86188,6.23674 13.29595,3.7023 12.85034,-3.14581 -0.24185,-16.24706 0.45571,-32.59887 -0.29678,-48.78973 -2.03985,-6.73862 -12.54351,-6.14969 -14.67402,0.26521 -4.78351,7.48924 -9.56702,14.97848 -14.35053,22.46772 -5.94141,-8.50894 -10.63932,-18.0988 -17.18325,-26.08649 -1.65594,-1.35305 -3.87276,-1.5675 -5.93549,-1.39484 z m -111.587226,2.07743 c -6.134389,0.27055 -6.773848,7.84888 -6.499363,11.96001 -6.432788,0.2452 -7.290214,10.49759 -1.009034,11.8413 3.469276,1.29974 0.257789,8.27041 1.365163,11.60389 -0.226961,7.50896 -1.344882,18.77825 7.478719,22.02067 5.327523,1.67454 13.141759,2.11622 16.856795,-2.67097 2.881971,-4.79643 -2.587335,-10.51619 -7.627106,-8.63614 -5.617047,0.17155 -2.474475,-7.73585 -3.26452,-10.95098 0.298254,-5.44928 -2.329641,-13.82471 6.083878,-11.15872 6.331858,-0.0156 7.789206,-9.83376 1.75097,-11.69292 -3.422237,-1.30456 -9.586127,1.72007 -7.834848,-4.18452 0.70016,-4.27445 -2.840163,-8.64474 -7.300654,-8.13162 z m 227.922856,0 c -5.80935,0.39134 -7.11958,7.24856 -6.14323,11.93033 -6.62487,-0.10271 -7.84337,10.5109 -1.33549,11.87098 3.42598,1.33397 0.2294,8.27843 1.33549,11.60389 -0.20254,7.51257 -1.33569,18.81266 7.50839,22.02067 5.34757,1.71001 13.41119,2.0932 16.91615,-2.81936 2.72326,-4.79121 -2.73002,-10.32516 -7.68646,-8.48775 -5.2776,0.28318 -2.72414,-7.13239 -3.2942,-10.09033 0.68835,-5.20758 -2.89833,-14.69018 5.6684,-12.01937 6.52286,0.46415 8.5008,-9.74269 2.19613,-11.69292 -3.4267,-1.30716 -9.61682,1.72907 -7.86453,-4.18452 0.70665,-4.29656 -2.8187,-8.64706 -7.30065,-8.13162 z M -149.1689,889.3216 c 13.49837,-0.64366 21.41818,16.42909 14.77937,27.39229 -5.87756,11.64271 -24.70988,10.98071 -29.85552,-0.94967 -5.60196,-11.20223 1.48413,-26.90922 15.07615,-26.44262 z m 173.524088,1.00904 c -14.285994,0.14571 -23.931711,15.65463 -20.892929,28.93552 2.295776,18.31311 27.932892,25.03805 40.12392,12.04904 4.212702,-4.63266 -2.101639,-12.12064 -7.300654,-8.75485 -5.438202,5.49264 -16.960582,5.32206 -19.290346,-3.08645 8.770939,-0.4709 17.837499,0.85026 26.47229,-0.47484 6.560278,-3.18445 3.652596,-12.02751 1.335486,-17.15357 -3.76923,-7.47694 -12.095718,-12.11703 -20.447767,-11.51485 z m 227.952532,0 c -13.83254,0.13164 -23.48038,14.75881 -21.07099,27.74842 1.10058,13.29874 15.22334,22.40774 27.92648,19.58712 5.42077,-1.28871 13.52672,-3.95136 13.62196,-10.62453 -0.28836,-5.58566 -7.75335,-6.76537 -10.92131,-2.81936 -5.49942,3.95743 -14.99601,2.47686 -16.91615,-4.74839 8.79043,-0.50172 17.87891,0.90561 26.53165,-0.50452 6.43578,-3.27066 3.61128,-11.93383 1.27613,-17.03486 -3.68832,-7.52611 -12.0846,-12.2115 -20.44777,-11.60388 z m -303.837786,0.20774 c -9.136905,-0.0356 -17.28052,8.75793 -14.838728,17.95486 2.05951,9.44827 13.37286,9.93829 20.536799,13.53292 3.66401,1.18218 0.444329,5.16703 -2.314841,4.39226 -5.659177,0.85637 -9.671222,-3.72064 -14.779373,-4.62968 -6.286078,-0.32027 -7.980566,9.29532 -2.196132,11.36646 9.119666,5.94411 23.96279,7.47844 31.280038,-2.01806 4.738545,-6.66011 2.324499,-17.20077 -5.579361,-20.09164 -4.41504,-2.78713 -11.074227,-2.60272 -14.571631,-6.46969 0.570758,-4.28062 7.090546,-2.45179 9.79356,-1.42451 3.341981,2.40281 9.445703,3.38909 11.396143,-1.39484 2.337513,-5.40656 -3.679659,-8.86244 -8.04259,-9.85292 -3.433106,-1.10149 -7.06507,-1.62933 -10.683884,-1.36516 z m 126.604026,0.11871 c -3.414982,0.0654 -6.423176,2.61951 -8.458075,4.80775 -1.643019,-6.61353 -12.272632,-5.99711 -13.058081,0.80129 0.04377,12.14888 -0.508588,24.43734 0.207742,36.53295 1.645762,6.90852 12.940869,5.66999 13.117436,-1.39485 0.814391,-8.48969 -2.755843,-20.53014 5.905813,-26.08648 3.598751,-1.63312 9.276825,-2.06497 9.467105,-7.27098 0.66965,-4.16983 -2.98397,-7.91403 -7.18194,-7.38968 z m 98.08399,0 c -5.54211,0.6103 -12.807,0.45143 -16.47099,5.28259 -3.13236,5.46235 3.95739,11.27597 8.99227,7.86452 4.80004,-2.03947 15.4942,-1.6275 15.25421,4.68904 -9.62549,-2.36576 -23.68768,-1.48242 -27.511,9.3484 -3.1201,8.32973 2.37516,18.20121 11.24775,19.6168 5.85067,1.27754 12.48926,0.22968 17.15357,-3.53162 2.65218,6.04624 13.12211,3.82604 12.67228,-2.96775 -0.78055,-12.87491 4.57004,-33.59962 -11.66324,-39.05553 -3.08978,-1.06282 -6.41516,-1.32999 -9.67485,-1.24645 z m -281.13454,0.089 c -6.09386,0.25738 -7.67929,8.08057 -4.1773,12.24529 4.65283,10.57895 9.64691,21.15746 14.089573,31.7367 -1.246009,4.30291 -5.880633,3.32482 -9.140653,2.3742 -6.44249,-0.57305 -8.22764,9.63143 -2.13678,11.48517 8.00322,3.6768 18.465542,0.8 21.93164,-7.65678 6.184759,-13.91614 12.135777,-28.12977 17.598731,-42.34973 1.810242,-6.44884 -7.724074,-10.82368 -11.485175,-5.37162 -4.174689,8.17329 -6.51624,17.32454 -10.090335,25.81939 -4.063984,-8.58395 -6.358331,-18.2606 -11.277431,-26.3239 -1.32325,-1.45926 -3.35223,-2.17144 -5.31227,-1.95872 z m 133.429844,11.24774 c 4.246336,-0.2651 7.705586,3.31652 8.428397,7.30065 -5.425745,-0.30153 -12.524749,0.59995 -16.91615,-0.44516 1.061711,-3.74028 4.389504,-6.99431 8.487753,-6.85549 z m 227.952536,0 c 4.21956,-0.24719 7.6784,3.3052 8.39872,7.30065 -5.44762,-0.28264 -12.38919,0.5616 -16.91615,-0.41548 1.07273,-3.77306 4.39255,-7.01752 8.51743,-6.88517 z m -80.01042,15.4026 c 3.04467,0.34678 9.69904,-0.69618 7.95355,4.15484 -1.59181,6.04081 -11.94826,7.9228 -15.25421,2.61162 -1.54758,-4.57577 3.38551,-6.94706 7.30066,-6.76646 z"
       id="text4181"
       inkscape:connector-curvature="0" />
  </g>
</svg>
