<?xml version="1.0" encoding="UTF-8" standalone="no"?>
<!-- Created with Inkscape (http://www.inkscape.org/) -->

<svg
   xmlns:dc="http://purl.org/dc/elements/1.1/"
   xmlns:cc="http://creativecommons.org/ns#"
   xmlns:rdf="http://www.w3.org/1999/02/22-rdf-syntax-ns#"
   xmlns:svg="http://www.w3.org/2000/svg"
   xmlns="http://www.w3.org/2000/svg"
   xmlns:xlink="http://www.w3.org/1999/xlink"
   xmlns:sodipodi="http://sodipodi.sourceforge.net/DTD/sodipodi-0.dtd"
   xmlns:inkscape="http://www.inkscape.org/namespaces/inkscape"
   width="400"
   height="80"
   id="svg2"
   version="1.1"
   inkscape:version="0.48.4 r9939"
   sodipodi:docname="title_large.svg"
   inkscape:export-filename="/home/andy/usr/projects/oystermate/res/drawable-mdpi/title.png"
   inkscape:export-xdpi="60.299999"
   inkscape:export-ydpi="60.299999">
  <defs
     id="defs4">
    <linearGradient
       id="linearGradient4156">
      <stop
         style="stop-color:#ffffff;stop-opacity:0.44736841;"
         offset="0"
         id="stop4158" />
      <stop
         style="stop-color:#ffffff;stop-opacity:0;"
         offset="1"
         id="stop4160" />
    </linearGradient>
    <filter
       id="filter3784"
       inkscape:label="Cutout"
       x="0"
       y="0"
       width="1"
       height="1"
       inkscape:menu="Shadows and Glows"
       inkscape:menu-tooltip="Drop shadow under the cut-out of the shape"
       color-interpolation-filters="sRGB">
      <feGaussianBlur
         id="feGaussianBlur3786"
         in="SourceAlpha"
         stdDeviation="4.2" />
      <feOffset
         id="feOffset3788"
         dy="5"
         dx="5"
         result="result91" />
      <feComposite
         id="feComposite3790"
         in2="result91"
         operator="out"
         in="SourceGraphic" />
    </filter>
    <filter
       id="filter3792"
       inkscape:label="Cutout"
       x="0"
       y="0"
       width="1"
       height="1"
       inkscape:menu="Shadows and Glows"
       inkscape:menu-tooltip="Drop shadow under the cut-out of the shape"
       color-interpolation-filters="sRGB">
      <feGaussianBlur
         id="feGaussianBlur3794"
         in="SourceAlpha"
         stdDeviation="4.2" />
      <feOffset
         id="feOffset3796"
         dy="5"
         dx="5"
         result="result91" />
      <feComposite
         id="feComposite3798"
         in2="result91"
         operator="out"
         in="SourceGraphic" />
    </filter>
    <radialGradient
       inkscape:collect="always"
       xlink:href="#linearGradient4156"
       id="radialGradient4162"
       cx="38.890873"
       cy="21.441866"
       fx="38.890873"
       fy="21.441866"
       r="46.909035"
       gradientTransform="matrix(1,0,0,0.61803401,0,8.1900636)"
       gradientUnits="userSpaceOnUse" />
    <radialGradient
       inkscape:collect="always"
       xlink:href="#linearGradient4156"
       id="radialGradient4231"
       cx="37"
       cy="983.36218"
       fx="37"
       fy="983.36218"
       r="34"
       gradientTransform="matrix(1.7386034,-2.2147958e-7,1.0275394e-7,0.80661315,-27.32842,190.16902)"
       gradientUnits="userSpaceOnUse" />
    <radialGradient
       inkscape:collect="always"
       xlink:href="#linearGradient4156"
       id="radialGradient4248"
       gradientUnits="userSpaceOnUse"
       gradientTransform="matrix(1.7401295,0,0,0.67954731,-31.675156,-12.076374)"
       cx="38.890873"
       cy="21.441866"
       fx="38.890873"
       fy="21.441866"
       r="46.909035" />
    <radialGradient
       r="46.909035"
       fy="21.441866"
       fx="38.890873"
       cy="21.441866"
       cx="38.890873"
       gradientTransform="matrix(1.7401295,0,0,0.67954731,-31.675156,-12.076374)"
       gradientUnits="userSpaceOnUse"
       id="radialGradient4248-1"
       xlink:href="#linearGradient4156-8"
       inkscape:collect="always" />
    <radialGradient
       gradientUnits="userSpaceOnUse"
       gradientTransform="matrix(1.7386034,-2.2147958e-7,1.0275394e-7,0.80661315,-27.32842,190.16902)"
       r="34"
       fy="983.36218"
       fx="37"
       cy="983.36218"
       cx="37"
       id="radialGradient4231-5"
       xlink:href="#linearGradient4156-8"
       inkscape:collect="always" />
    <radialGradient
       gradientUnits="userSpaceOnUse"
       gradientTransform="matrix(1,0,0,0.61803401,0,8.1900636)"
       r="46.909035"
       fy="21.441866"
       fx="38.890873"
       cy="21.441866"
       cx="38.890873"
       id="radialGradient4162-0"
       xlink:href="#linearGradient4156-8"
       inkscape:collect="always" />
    <filter
       color-interpolation-filters="sRGB"
       inkscape:menu-tooltip="Drop shadow under the cut-out of the shape"
       inkscape:menu="Shadows and Glows"
       height="1"
       width="1"
       y="0"
       x="0"
       inkscape:label="Cutout"
       id="filter3792-8">
      <feGaussianBlur
         stdDeviation="4.2"
         in="SourceAlpha"
         id="feGaussianBlur3794-0" />
      <feOffset
         result="result91"
         dx="5"
         dy="5"
         id="feOffset3796-2" />
      <feComposite
         in="SourceGraphic"
         operator="out"
         in2="result91"
         id="feComposite3798-1" />
    </filter>
    <filter
       color-interpolation-filters="sRGB"
       inkscape:menu-tooltip="Drop shadow under the cut-out of the shape"
       inkscape:menu="Shadows and Glows"
       height="1"
       width="1"
       y="0"
       x="0"
       inkscape:label="Cutout"
       id="filter3784-8">
      <feGaussianBlur
         stdDeviation="4.2"
         in="SourceAlpha"
         id="feGaussianBlur3786-9" />
      <feOffset
         result="result91"
         dx="5"
         dy="5"
         id="feOffset3788-3" />
      <feComposite
         in="SourceGraphic"
         operator="out"
         in2="result91"
         id="feComposite3790-6" />
    </filter>
    <linearGradient
       id="linearGradient4156-8">
      <stop
         id="stop4158-1"
         offset="0"
         style="stop-color:#ffffff;stop-opacity:0.44736841;" />
      <stop
         id="stop4160-2"
         offset="1"
         style="stop-color:#ffffff;stop-opacity:0;" />
    </linearGradient>
    <radialGradient
       inkscape:collect="always"
       xlink:href="#linearGradient4156-8"
       id="radialGradient3087"
       gradientUnits="userSpaceOnUse"
       gradientTransform="matrix(1.7386034,-2.2147958e-7,1.0275394e-7,0.80661315,-404.5928,131.74436)"
       cx="37"
       cy="983.36218"
       fx="37"
       fy="983.36218"
       r="34" />
    <radialGradient
       inkscape:collect="always"
       xlink:href="#linearGradient4156-8"
       id="radialGradient3090"
       gradientUnits="userSpaceOnUse"
       gradientTransform="matrix(1.7401295,0,0,0.67954731,-489.18954,890.36115)"
       cx="38.890873"
       cy="21.441866"
       fx="38.890873"
       fy="21.441866"
       r="46.909035" />
    <filter
       inkscape:collect="always"
       id="filter4191"
       color-interpolation-filters="sRGB">
      <feGaussianBlur
         inkscape:collect="always"
         stdDeviation="2.7503465"
         id="feGaussianBlur4193" />
    </filter>
  </defs>
  <sodipodi:namedview
     id="base"
     pagecolor="#ffffff"
     bordercolor="#666666"
     borderopacity="1.0"
     inkscape:pageopacity="0.0"
     inkscape:pageshadow="2"
     inkscape:zoom="4.0000002"
     inkscape:cx="208.7728"
     inkscape:cy="10.40139"
     inkscape:document-units="px"
     inkscape:current-layer="layer1"
     showgrid="false"
     inkscape:window-width="2560"
     inkscape:window-height="1378"
     inkscape:window-x="0"
     inkscape:window-y="27"
     inkscape:window-maximized="1"
     fit-margin-top="0"
     fit-margin-left="0"
     fit-margin-right="0"
     fit-margin-bottom="0" />
  <metadata
     id="metadata7">
    <rdf:RDF>
      <cc:Work
         rdf:about="">
        <dc:format>image/svg+xml</dc:format>
        <dc:type
           rdf:resource="http://purl.org/dc/dcmitype/StillImage" />
        <dc:title />
      </cc:Work>
    </rdf:RDF>
  </metadata>
  <g
     inkscape:label="Layer 1"
     inkscape:groupmode="layer"
     id="layer1"
     transform="translate(185.51439,-880.6875)">
    <g
       id="g4174"
       style="opacity:0.5;filter:url(#filter4191)"
       transform="matrix(0.82304908,0,0,0.82304908,-32.50304,169.8548)">
      <path
         sodipodi:type="arc"
         style="fill:#000000;fill-opacity:1;stroke:#000000;stroke-width:17.11776352;stroke-linecap:butt;stroke-linejoin:round;stroke-miterlimit:4;stroke-opacity:1;stroke-dasharray:none"
         id="path4142"
         sodipodi:cx="-78.488853"
         sodipodi:cy="60.40202"
         sodipodi:rx="33.234016"
         sodipodi:ry="33.234016"
         d="m -45.254837,60.40202 c 0,18.35464 -14.879376,33.234016 -33.234016,33.234016 -18.354641,0 -33.234017,-14.879376 -33.234017,-33.234016 0,-18.354641 14.879376,-33.234017 33.234017,-33.234017 18.35464,0 33.234016,14.879376 33.234016,33.234017 z"
         transform="matrix(0.81786385,0,0,0.81786385,-81.546441,859.28687)" />
      <path
         sodipodi:type="arc"
         style="fill:#000000;fill-opacity:1;stroke:none"
         id="path4144"
         sodipodi:cx="39.95153"
         sodipodi:cy="46.436665"
         sodipodi:rx="9.7227182"
         sodipodi:ry="9.7227182"
         d="m 49.674249,46.436665 c 0,5.369709 -4.35301,9.722718 -9.722719,9.722718 -5.369709,0 -9.722718,-4.353009 -9.722718,-9.722718 0,-5.369709 4.353009,-9.722719 9.722718,-9.722719 5.369709,0 9.722719,4.35301 9.722719,9.722719 z"
         transform="matrix(1.6909091,0,0,1.6909091,-213.11726,830.16732)" />
      <path
         style="font-size:1199.04626465px;font-style:normal;font-variant:normal;font-weight:normal;font-stretch:normal;line-height:125%;letter-spacing:-100px;word-spacing:0px;fill:#000000;fill-opacity:1;stroke:none;font-family:Gotham Rounded;-inkscape-font-specification:Gotham Rounded"
         d="m 111.91085,873.99029 c -1.36165,-0.0487 -2.77356,0.10189 -3.97917,0.7752 -2.29582,1.18414 -3.66036,3.8215 -3.39598,6.38156 0.005,18.02776 -0.0406,36.05648 0.024,54.08363 0.19317,3.01525 2.91743,5.62788 5.95195,5.62558 2.82553,0.17591 5.67887,-1.68528 6.42476,-4.44718 0.53704,-1.96432 0.17059,-4.02461 0.2712,-6.03357 0,-10.62632 0,-21.25265 0,-31.87897 5.03893,7.494 9.95256,15.0751 15.0815,22.50704 1.52595,1.82174 4.23558,2.74148 6.50635,1.80958 1.85771,-0.68715 3.1368,-2.31611 4.10195,-3.97773 4.56845,-6.83097 9.10476,-13.68358 13.66033,-20.5237 0.0285,12.33801 -0.0583,24.6774 0.0491,37.01451 0.39505,3.42872 3.96617,6.08663 7.36453,5.46758 3.02279,-0.37474 5.56633,-3.18445 5.43604,-6.26382 0.0292,-3.01421 -0.008,-6.02875 0.009,-9.04325 -0.0166,-15.31216 0.0584,-30.62696 -0.0483,-45.93744 -0.37807,-3.21674 -3.52978,-5.78489 -6.76037,-5.54701 -2.20808,-0.14832 -4.62801,0.55941 -5.9766,2.39697 -1.39089,1.74499 -2.39811,3.76664 -3.67118,5.58696 -5.32881,8.33141 -10.65762,16.66283 -15.98644,24.99425 -6.50014,-10.13928 -12.91505,-20.33855 -19.48306,-30.4318 -1.30864,-1.67725 -3.45118,-2.62586 -5.57997,-2.55839 z m -126.973548,2.42639 c -3.468528,-0.0104 -6.554564,3.26696 -6.230251,6.74156 0.0046,2.34878 0.0015,4.69756 0,7.04635 -1.760851,-0.0774 -3.706955,0.22475 -4.960768,1.55519 -0.736247,0.68 -1.231599,1.69602 -1.526384,2.57518 -1.604035,-1.32924 -3.624658,-1.97185 -5.509461,-2.80176 -5.697624,-2.15357 -12.105694,-2.88544 -18.031198,-1.23471 -4.30739,1.27032 -8.32004,4.16433 -10.19112,8.33004 -1.64701,3.76418 -1.73451,8.18441 -0.3144,12.03112 1.14422,2.75503 3.48937,4.82229 6.0951,6.16345 3.48622,1.99662 7.44079,2.97895 11.251308,4.20025 2.479332,0.8311 5.013149,1.80196 6.967831,3.5802 0.81085,0.83306 1.009855,2.13886 0.549592,3.20158 -0.641274,1.6786 -2.364857,2.65516 -4.070371,2.89438 -3.154621,0.58356 -6.421607,0.0181 -9.4326,-0.96565 -2.56,-0.86527 -4.91029,-2.23533 -7.18489,-3.66391 -2.4468,-1.18405 -5.72493,-0.14267 -6.92634,2.31838 -1.19475,2.19084 -0.7095,5.3294 1.45372,6.73684 3.05406,2.13244 6.43453,3.84599 10.03019,4.87667 5.29535,1.54114 11.029093,1.79787 16.379886,0.38162 4.121655,-1.17532 8.060441,-3.7164 10.05354,-7.60556 1.658328,-3.24603 2.041703,-7.0804 1.375191,-10.64874 -0.588809,-2.78178 -2.277921,-5.28835 -4.604536,-6.91732 -3.865005,-2.92818 -8.571577,-4.37927 -13.140948,-5.84099 -2.354055,-0.79836 -4.727553,-1.62681 -6.832753,-2.96638 -1.39827,-1.11974 -1.64225,-3.39939 -0.40079,-4.72556 1.29649,-1.48537 3.39258,-1.90764 5.284757,-1.90318 3.712227,0.0164 7.24035,1.38109 10.543445,2.95976 1.027749,0.47636 2.086717,1.01964 3.256405,0.9156 2.228107,-0.0705 4.406323,-1.61081 4.975226,-3.79617 1.291789,1.24614 3.217668,1.67128 4.95117,1.48319 -0.08723,1.29966 0.0038,2.61996 -0.03276,3.92877 -0.0053,7.49578 -0.04883,14.9928 0.04563,22.48778 0.1514,3.54404 1.223272,7.24003 3.786281,9.78961 2.69787,2.63467 6.585313,3.62635 10.2863424,3.65519 3.293961,0.0674 6.67202499,-0.39812 9.647928,-1.86241 2.297857,-1.40462 3.064172,-4.7217 1.708789,-7.04395 -1.112248,-2.01527 -3.58016101,-3.26784 -5.865563,-2.69998 -1.897266,0.29356 -4.092493,0.2571 -5.599154,-1.08959 -1.36189,-1.34941 -1.38226,-3.41908 -1.34449,-5.21517 0.01051,-7.31834 0.003,-14.6367 0.0053,-21.95505 3.118596,-0.052 6.258308,0.16623 9.36234599,-0.144 2.91284901,-0.65304 4.97988901,-3.94569 4.08667301,-6.85419 -0.688749,-2.58794 -3.408041,-4.41804 -6.073861,-4.10491 -2.46076,-0.0118 -4.921574,0.004 -7.382349,-0.004 -0.04967,-2.96257 0.158165,-5.94591 -0.134396,-8.89434 -0.641884,-2.81362 -3.3840064,-5.05064 -6.3071664,-4.91517 z m 244.930338,0 c -3.47846,-0.0168 -6.56997,3.28531 -6.23265,6.76795 0.003,2.33919 0.005,4.68476 -0.002,7.01996 -1.77605,-0.0795 -3.72756,0.23436 -4.99917,1.58399 -2.1327,2.0536 -2.21479,5.9021 -0.024,7.94394 1.14321,1.17066 2.84013,1.73862 4.47117,1.63679 0.21722,0.0436 0.68628,-0.24225 0.56845,0.1776 7.6e-4,8.88453 -0.0831,17.77093 0.0555,26.65422 0.23713,3.42417 1.31952,6.95942 3.83344,9.39824 2.68167,2.59282 6.52022,3.55768 10.17046,3.60128 3.30963,0.0568 6.70347,-0.38464 9.68874,-1.8564 2.31521,-1.40537 3.08074,-4.76404 1.6974,-7.08921 -1.1279,-2.0054 -3.59112,-3.22937 -5.86515,-2.65907 -1.82717,0.28415 -3.91778,0.24242 -5.42737,-0.95324 -1.28771,-1.13472 -1.52824,-2.961 -1.48932,-4.58634 0.002,-7.57415 0.002,-15.14872 0.002,-22.72308 3.1041,-0.0466 6.2235,0.15638 9.31673,-0.13439 2.95826,-0.63585 5.04599,-3.98166 4.11597,-6.90957 -0.68008,-2.48507 -3.23204,-4.27396 -5.81276,-4.0676 -2.54238,7.6e-4 -5.08477,0.0107 -7.62715,0.005 -0.0504,-2.96406 0.15718,-5.94394 -0.1368,-8.89674 -0.64547,-2.80911 -3.37769,-5.04794 -6.30236,-4.91277 z M 26.591424,889.2158 c -6.243674,-0.0404 -12.501441,2.49437 -16.7734896,7.06314 -4.63206,4.73296 -7.296692,11.27553 -7.413141,17.89639 -0.270057,6.14117 1.217194,12.51629 4.989168,17.44578 4.0438676,5.39628 10.3924106,8.97824 17.1094806,9.65514 7.073584,0.88353 14.610631,-0.77735 20.230088,-5.25993 1.313073,-1.01669 2.671946,-2.23609 2.985913,-3.94967 0.507837,-2.23245 -0.47895,-4.79728 -2.549738,-5.85751 -1.951376,-1.06515 -4.567558,-0.73241 -6.165559,0.82559 -4.104873,3.33606 -9.855938,4.71396 -14.982237,3.21303 -3.003678,-0.85746 -5.625634,-2.92038 -7.13842,-5.65141 -0.800079,-1.41301 -1.349807,-2.97153 -1.667988,-4.56237 10.188112,-0.039 20.379393,0.0791 30.565456,-0.0659 3.038919,-0.40144 5.341636,-3.47382 4.998415,-6.50528 -0.08511,-6.44373 -2.496244,-12.96722 -7.13583,-17.50391 -3.787181,-3.74787 -8.871063,-6.21418 -14.207823,-6.63482 -0.945323,-0.0865 -1.895141,-0.12025 -2.844295,-0.10831 z m 244.920736,0 c -6.26134,-0.0389 -12.52369,2.51177 -16.80289,7.09913 -4.61996,4.73862 -7.27211,11.28211 -7.37694,17.89909 -0.27127,6.2172 1.27305,12.67427 5.15036,17.61829 3.97722,5.19247 10.10423,8.65517 16.61268,9.40314 6.62953,0.89357 13.66476,-0.41971 19.21793,-4.22616 1.27627,-0.90787 2.59139,-1.83894 3.53152,-3.1034 1.27879,-1.84056 1.25821,-4.49291 -0.11759,-6.27836 -1.13631,-1.54172 -3.16968,-2.34166 -5.06157,-1.95599 -1.30528,0.22127 -2.42591,0.98197 -3.38569,1.86011 -4.39312,3.25184 -10.50076,4.32846 -15.63659,2.26308 -3.07346,-1.27461 -5.51096,-3.85814 -6.67359,-6.96667 -0.36059,-0.90088 -0.63993,-1.83746 -0.82635,-2.79408 10.1881,-0.039 20.37938,0.0791 30.56544,-0.0659 3.02868,-0.39864 5.32851,-3.4592 4.99678,-6.47648 -0.072,-5.88585 -2.07029,-11.80437 -5.93898,-16.27308 -3.56025,-4.01977 -8.48284,-6.92858 -13.85354,-7.70222 -1.45184,-0.22808 -2.9288,-0.32031 -4.40098,-0.30054 z m -194.516278,0.36479 c -3.154514,0.0237 -5.988494,1.81076 -8.121544,3.99837 -1.245837,1.27229 -2.345577,2.68996 -3.239973,4.23598 0.07458,-1.8625 0.01371,-3.88224 -1.159198,-5.42156 -1.534992,-2.24966 -4.614698,-3.34222 -7.209549,-2.41679 -2.464463,0.79747 -4.338097,3.22107 -4.30425,5.84868 -0.04921,1.97568 0.03443,3.95201 -0.0061,5.92804 0.02224,11.27217 -0.06978,22.54715 0.05774,33.81751 0.372854,2.95321 3.138318,5.35183 6.124285,5.29163 2.902115,0.0737 5.825081,-2.01839 6.338091,-4.93503 0.360803,-1.91534 0.05767,-3.87945 0.165196,-5.8159 0.02141,-4.55688 -0.156588,-9.12458 0.190282,-13.6727 0.419529,-3.93843 1.88836,-7.92882 4.82788,-10.68384 2.238094,-2.14807 5.219566,-3.4458 8.276029,-3.90567 2.426761,-0.63911 4.328513,-2.89568 4.45677,-5.41437 0.264519,-2.55181 -1.052851,-5.31837 -3.484777,-6.31915 -0.902083,-0.39626 -1.917697,-0.5621 -2.911173,-0.5352 z m 118.011998,0.005 c -5.62517,0.0923 -11.2919,1.10161 -16.44469,3.38878 -2.38541,1.35635 -3.20461,4.69563 -1.93519,7.08939 0.9041,1.80851 2.86196,3.01199 4.90158,2.93534 1.89603,-0.005 3.56848,-1.02548 5.38796,-1.38479 3.81641,-0.92659 7.87857,-1.15267 11.72632,-0.2928 2.7656,0.75858 5.33839,2.75356 6.16316,5.57036 0.40318,1.26304 0.54911,2.58677 0.55679,3.91197 -5.57998,-1.68544 -11.53613,-2.20181 -17.32309,-1.45918 -4.42929,0.60484 -8.88159,2.29651 -12.02391,5.54876 -2.08979,2.14448 -3.29065,5.01501 -3.66141,7.96955 -0.52631,3.87767 0.0425,8.05484 2.26462,11.33351 2.27204,3.38087 6.01529,5.53025 9.91194,6.52317 4.19267,1.02959 8.6855,0.91741 12.80486,-0.36961 2.96459,-0.95074 5.72791,-2.58849 7.9022,-4.81435 0.0766,1.76373 1.03177,3.47898 2.58478,4.34874 2.64212,1.63173 6.53184,1.23086 8.50611,-1.25946 1.0733,-1.28421 1.44668,-3.00998 1.32068,-4.65648 -0.0414,-8.55563 0.0984,-17.11362 -0.0782,-25.66766 -0.30897,-4.77527 -1.91392,-9.65623 -5.37791,-13.072 -3.1481,-3.19698 -7.57276,-4.86982 -11.98583,-5.36724 -1.72219,-0.22084 -3.4643,-0.29211 -5.20077,-0.276 z m -298.86037,0.072 c -2.81966,0.0649 -5.48646,2.23442 -5.90156,5.05917 -0.33517,1.8253 0.29716,3.66899 1.12451,5.27506 5.82198,12.96351 11.61121,25.94169 17.42016,38.91104 -0.7734,2.03923 -2.02133,4.12203 -4.11357,4.99194 -2.1815,0.82105 -4.5514,0.18512 -6.69381,-0.43314 -1.68064,-0.44493 -3.57988,-0.1436 -4.9245,0.98998 -1.34303,1.08397 -2.02963,2.84154 -1.89945,4.55505 0.097,1.97819 1.33208,3.91886 3.21943,4.61768 3.08723,1.41108 6.54828,1.87334 9.92633,1.74955 3.55724,-0.16811 7.14501,-1.413 9.68682,-3.96484 3.16946,-3.06187 5.02922,-7.16283 6.72846,-11.16948 5.78905,-14.02731 11.73264,-27.99242 17.47249,-42.04046 0.72517,-2.22926 0.45333,-4.97873 -1.30799,-6.64556 -1.86729,-1.985 -5.1562,-2.53567 -7.49034,-1.05119 -1.42188,0.84838 -2.39845,2.27252 -2.94637,3.81611 -1.0534,2.61922 -1.96276,5.29576 -2.99919,7.91745 -2.84052,7.55114 -5.68103,15.10227 -8.52155,22.65341 -4.31842,-10.61227 -8.53081,-21.27106 -12.94311,-31.84299 -1.07622,-2.00923 -3.2382,-3.47476 -5.57037,-3.38878 -0.0888,-0.003 -0.17757,-0.003 -0.26639,0 z m 375.82305,10.19274 c 3.3298,-0.005 6.71972,1.55502 8.59194,4.36316 1.47061,2.02722 2.3285,4.44507 2.66157,6.91676 -7.73593,-0.01 -15.47192,0.0186 -23.20783,-0.0144 0.67509,-4.12533 2.97212,-8.18798 6.78955,-10.13034 1.5938,-0.81157 3.38214,-1.15352 5.16477,-1.13519 z m -244.911141,0.005 c 3.377645,-0.0164 6.803039,1.61237 8.661552,4.47836 1.420601,2.00284 2.250009,4.37679 2.575182,6.79676 -7.731846,-0.011 -15.496678,0.0241 -23.207849,-0.0192 0.629946,-3.82291 2.648901,-7.58697 5.990361,-9.68394 1.78634,-1.10911 3.88715,-1.61099 5.980754,-1.57199 z M 195.25268,917.6392 c 3.48981,0.002 6.99387,0.49855 10.27433,1.6968 0.005,2.41431 0.22124,5.0356 -1.12799,7.16394 -1.7942,3.0016 -5.18345,4.68521 -8.57283,5.08935 -3.09861,0.42161 -6.52736,0.17904 -9.09825,-1.77977 -1.71941,-1.36476 -2.43752,-3.70168 -2.08079,-5.83676 0.25042,-1.85625 1.36594,-3.55848 2.98731,-4.48943 2.24361,-1.45997 4.98802,-1.83685 7.61822,-1.84413 z"
         id="path4146"
         inkscape:connector-curvature="0" />
    </g>
    <text
       xml:space="preserve"
       style="font-size:48px;font-style:normal;font-weight:normal;line-height:125%;letter-spacing:0px;word-spacing:0px;fill:#000000;fill-opacity:1;stroke:none;font-family:Sans"
       x="269.05411"
       y="66.41243"
       id="text4096"
       sodipodi:linespacing="125%"
       transform="translate(-185.51439,860.6875)"><tspan
         sodipodi:role="line"
         id="tspan4098"
         x="269.05411"
         y="66.41243" /></text>
    <g
       id="g4118"
       transform="matrix(0.82304908,0,0,0.82304908,-32.50304,169.8548)">
      <g
         transform="translate(0,1.5633318)"
         id="g4114">
        <path
           sodipodi:type="arc"
           style="fill:#ffffff;fill-opacity:1;stroke:#0e458a;stroke-width:17.11776352;stroke-linecap:butt;stroke-linejoin:round;stroke-miterlimit:4;stroke-opacity:1;stroke-dasharray:none"
           id="path3303"
           sodipodi:cx="-78.488853"
           sodipodi:cy="60.40202"
           sodipodi:rx="33.234016"
           sodipodi:ry="33.234016"
           d="m -45.254837,60.40202 c 0,18.35464 -14.879376,33.234016 -33.234016,33.234016 -18.354641,0 -33.234017,-14.879376 -33.234017,-33.234016 0,-18.354641 14.879376,-33.234017 33.234017,-33.234017 18.35464,0 33.234016,14.879376 33.234016,33.234017 z"
           transform="matrix(0.81786385,0,0,0.81786385,-81.546441,857.72354)" />
        <path
           sodipodi:type="arc"
           style="fill:#01a6eb;fill-opacity:1;stroke:none"
           id="path4073"
           sodipodi:cx="39.95153"
           sodipodi:cy="46.436665"
           sodipodi:rx="9.7227182"
           sodipodi:ry="9.7227182"
           d="m 49.674249,46.436665 c 0,5.369709 -4.35301,9.722718 -9.722719,9.722718 -5.369709,0 -9.722718,-4.353009 -9.722718,-9.722718 0,-5.369709 4.353009,-9.722719 9.722718,-9.722719 5.369709,0 9.722719,4.35301 9.722719,9.722719 z"
           transform="matrix(1.6909091,0,0,1.6909091,-213.11726,828.60399)" />
      </g>
      <path
         inkscape:connector-curvature="0"
         id="text4100"
         d="m 111.91085,873.99029 c -1.36165,-0.0487 -2.77356,0.10189 -3.97917,0.7752 -2.29582,1.18414 -3.66036,3.8215 -3.39598,6.38156 0.005,18.02776 -0.0406,36.05648 0.024,54.08363 0.19317,3.01525 2.91743,5.62788 5.95195,5.62558 2.82553,0.17591 5.67887,-1.68528 6.42476,-4.44718 0.53704,-1.96432 0.17059,-4.02461 0.2712,-6.03357 0,-10.62632 0,-21.25265 0,-31.87897 5.03893,7.494 9.95256,15.0751 15.0815,22.50704 1.52595,1.82174 4.23558,2.74148 6.50635,1.80958 1.85771,-0.68715 3.1368,-2.31611 4.10195,-3.97773 4.56845,-6.83097 9.10476,-13.68358 13.66033,-20.5237 0.0285,12.33801 -0.0583,24.6774 0.0491,37.01451 0.39505,3.42872 3.96617,6.08663 7.36453,5.46758 3.02279,-0.37474 5.56633,-3.18445 5.43604,-6.26382 0.0292,-3.01421 -0.008,-6.02875 0.009,-9.04325 -0.0166,-15.31216 0.0584,-30.62696 -0.0483,-45.93744 -0.37807,-3.21674 -3.52978,-5.78489 -6.76037,-5.54701 -2.20808,-0.14832 -4.62801,0.55941 -5.9766,2.39697 -1.39089,1.74499 -2.39811,3.76664 -3.67118,5.58696 -5.32881,8.33141 -10.65762,16.66283 -15.98644,24.99425 -6.50014,-10.13928 -12.91505,-20.33855 -19.48306,-30.4318 -1.30864,-1.67725 -3.45118,-2.62586 -5.57997,-2.55839 z m -126.973548,2.42639 c -3.468528,-0.0104 -6.554564,3.26696 -6.230251,6.74156 0.0046,2.34878 0.0015,4.69756 0,7.04635 -1.760851,-0.0774 -3.706955,0.22475 -4.960768,1.55519 -0.736247,0.68 -1.231599,1.69602 -1.526384,2.57518 -1.604035,-1.32924 -3.624658,-1.97185 -5.509461,-2.80176 -5.697624,-2.15357 -12.105694,-2.88544 -18.031198,-1.23471 -4.30739,1.27032 -8.32004,4.16433 -10.19112,8.33004 -1.64701,3.76418 -1.73451,8.18441 -0.3144,12.03112 1.14422,2.75503 3.48937,4.82229 6.0951,6.16345 3.48622,1.99662 7.44079,2.97895 11.251308,4.20025 2.479332,0.8311 5.013149,1.80196 6.967831,3.5802 0.81085,0.83306 1.009855,2.13886 0.549592,3.20158 -0.641274,1.6786 -2.364857,2.65516 -4.070371,2.89438 -3.154621,0.58356 -6.421607,0.0181 -9.4326,-0.96565 -2.56,-0.86527 -4.91029,-2.23533 -7.18489,-3.66391 -2.4468,-1.18405 -5.72493,-0.14267 -6.92634,2.31838 -1.19475,2.19084 -0.7095,5.3294 1.45372,6.73684 3.05406,2.13244 6.43453,3.84599 10.03019,4.87667 5.29535,1.54114 11.029093,1.79787 16.379886,0.38162 4.121655,-1.17532 8.060441,-3.7164 10.05354,-7.60556 1.658328,-3.24603 2.041703,-7.0804 1.375191,-10.64874 -0.588809,-2.78178 -2.277921,-5.28835 -4.604536,-6.91732 -3.865005,-2.92818 -8.571577,-4.37927 -13.140948,-5.84099 -2.354055,-0.79836 -4.727553,-1.62681 -6.832753,-2.96638 -1.39827,-1.11974 -1.64225,-3.39939 -0.40079,-4.72556 1.29649,-1.48537 3.39258,-1.90764 5.284757,-1.90318 3.712227,0.0164 7.24035,1.38109 10.543445,2.95976 1.027749,0.47636 2.086717,1.01964 3.256405,0.9156 2.228107,-0.0705 4.406323,-1.61081 4.975226,-3.79617 1.291789,1.24614 3.217668,1.67128 4.95117,1.48319 -0.08723,1.29966 0.0038,2.61996 -0.03276,3.92877 -0.0053,7.49578 -0.04883,14.9928 0.04563,22.48778 0.1514,3.54404 1.223272,7.24003 3.786281,9.78961 2.69787,2.63467 6.585313,3.62635 10.2863424,3.65519 3.293961,0.0674 6.67202499,-0.39812 9.647928,-1.86241 2.297857,-1.40462 3.064172,-4.7217 1.708789,-7.04395 -1.112248,-2.01527 -3.58016101,-3.26784 -5.865563,-2.69998 -1.897266,0.29356 -4.092493,0.2571 -5.599154,-1.08959 -1.36189,-1.34941 -1.38226,-3.41908 -1.34449,-5.21517 0.01051,-7.31834 0.003,-14.6367 0.0053,-21.95505 3.118596,-0.052 6.258308,0.16623 9.36234599,-0.144 2.91284901,-0.65304 4.97988901,-3.94569 4.08667301,-6.85419 -0.688749,-2.58794 -3.408041,-4.41804 -6.073861,-4.10491 -2.46076,-0.0118 -4.921574,0.004 -7.382349,-0.004 -0.04967,-2.96257 0.158165,-5.94591 -0.134396,-8.89434 -0.641884,-2.81362 -3.3840064,-5.05064 -6.3071664,-4.91517 z m 244.930338,0 c -3.47846,-0.0168 -6.56997,3.28531 -6.23265,6.76795 0.003,2.33919 0.005,4.68476 -0.002,7.01996 -1.77605,-0.0795 -3.72756,0.23436 -4.99917,1.58399 -2.1327,2.0536 -2.21479,5.9021 -0.024,7.94394 1.14321,1.17066 2.84013,1.73862 4.47117,1.63679 0.21722,0.0436 0.68628,-0.24225 0.56845,0.1776 7.6e-4,8.88453 -0.0831,17.77093 0.0555,26.65422 0.23713,3.42417 1.31952,6.95942 3.83344,9.39824 2.68167,2.59282 6.52022,3.55768 10.17046,3.60128 3.30963,0.0568 6.70347,-0.38464 9.68874,-1.8564 2.31521,-1.40537 3.08074,-4.76404 1.6974,-7.08921 -1.1279,-2.0054 -3.59112,-3.22937 -5.86515,-2.65907 -1.82717,0.28415 -3.91778,0.24242 -5.42737,-0.95324 -1.28771,-1.13472 -1.52824,-2.961 -1.48932,-4.58634 0.002,-7.57415 0.002,-15.14872 0.002,-22.72308 3.1041,-0.0466 6.2235,0.15638 9.31673,-0.13439 2.95826,-0.63585 5.04599,-3.98166 4.11597,-6.90957 -0.68008,-2.48507 -3.23204,-4.27396 -5.81276,-4.0676 -2.54238,7.6e-4 -5.08477,0.0107 -7.62715,0.005 -0.0504,-2.96406 0.15718,-5.94394 -0.1368,-8.89674 -0.64547,-2.80911 -3.37769,-5.04794 -6.30236,-4.91277 z M 26.591424,889.2158 c -6.243674,-0.0404 -12.501441,2.49437 -16.7734896,7.06314 -4.63206,4.73296 -7.296692,11.27553 -7.413141,17.89639 -0.270057,6.14117 1.217194,12.51629 4.989168,17.44578 4.0438676,5.39628 10.3924106,8.97824 17.1094806,9.65514 7.073584,0.88353 14.610631,-0.77735 20.230088,-5.25993 1.313073,-1.01669 2.671946,-2.23609 2.985913,-3.94967 0.507837,-2.23245 -0.47895,-4.79728 -2.549738,-5.85751 -1.951376,-1.06515 -4.567558,-0.73241 -6.165559,0.82559 -4.104873,3.33606 -9.855938,4.71396 -14.982237,3.21303 -3.003678,-0.85746 -5.625634,-2.92038 -7.13842,-5.65141 -0.800079,-1.41301 -1.349807,-2.97153 -1.667988,-4.56237 10.188112,-0.039 20.379393,0.0791 30.565456,-0.0659 3.038919,-0.40144 5.341636,-3.47382 4.998415,-6.50528 -0.08511,-6.44373 -2.496244,-12.96722 -7.13583,-17.50391 -3.787181,-3.74787 -8.871063,-6.21418 -14.207823,-6.63482 -0.945323,-0.0865 -1.895141,-0.12025 -2.844295,-0.10831 z m 244.920736,0 c -6.26134,-0.0389 -12.52369,2.51177 -16.80289,7.09913 -4.61996,4.73862 -7.27211,11.28211 -7.37694,17.89909 -0.27127,6.2172 1.27305,12.67427 5.15036,17.61829 3.97722,5.19247 10.10423,8.65517 16.61268,9.40314 6.62953,0.89357 13.66476,-0.41971 19.21793,-4.22616 1.27627,-0.90787 2.59139,-1.83894 3.53152,-3.1034 1.27879,-1.84056 1.25821,-4.49291 -0.11759,-6.27836 -1.13631,-1.54172 -3.16968,-2.34166 -5.06157,-1.95599 -1.30528,0.22127 -2.42591,0.98197 -3.38569,1.86011 -4.39312,3.25184 -10.50076,4.32846 -15.63659,2.26308 -3.07346,-1.27461 -5.51096,-3.85814 -6.67359,-6.96667 -0.36059,-0.90088 -0.63993,-1.83746 -0.82635,-2.79408 10.1881,-0.039 20.37938,0.0791 30.56544,-0.0659 3.02868,-0.39864 5.32851,-3.4592 4.99678,-6.47648 -0.072,-5.88585 -2.07029,-11.80437 -5.93898,-16.27308 -3.56025,-4.01977 -8.48284,-6.92858 -13.85354,-7.70222 -1.45184,-0.22808 -2.9288,-0.32031 -4.40098,-0.30054 z m -194.516278,0.36479 c -3.154514,0.0237 -5.988494,1.81076 -8.121544,3.99837 -1.245837,1.27229 -2.345577,2.68996 -3.239973,4.23598 0.07458,-1.8625 0.01371,-3.88224 -1.159198,-5.42156 -1.534992,-2.24966 -4.614698,-3.34222 -7.209549,-2.41679 -2.464463,0.79747 -4.338097,3.22107 -4.30425,5.84868 -0.04921,1.97568 0.03443,3.95201 -0.0061,5.92804 0.02224,11.27217 -0.06978,22.54715 0.05774,33.81751 0.372854,2.95321 3.138318,5.35183 6.124285,5.29163 2.902115,0.0737 5.825081,-2.01839 6.338091,-4.93503 0.360803,-1.91534 0.05767,-3.87945 0.165196,-5.8159 0.02141,-4.55688 -0.156588,-9.12458 0.190282,-13.6727 0.419529,-3.93843 1.88836,-7.92882 4.82788,-10.68384 2.238094,-2.14807 5.219566,-3.4458 8.276029,-3.90567 2.426761,-0.63911 4.328513,-2.89568 4.45677,-5.41437 0.264519,-2.55181 -1.052851,-5.31837 -3.484777,-6.31915 -0.902083,-0.39626 -1.917697,-0.5621 -2.911173,-0.5352 z m 118.011998,0.005 c -5.62517,0.0923 -11.2919,1.10161 -16.44469,3.38878 -2.38541,1.35635 -3.20461,4.69563 -1.93519,7.08939 0.9041,1.80851 2.86196,3.01199 4.90158,2.93534 1.89603,-0.005 3.56848,-1.02548 5.38796,-1.38479 3.81641,-0.92659 7.87857,-1.15267 11.72632,-0.2928 2.7656,0.75858 5.33839,2.75356 6.16316,5.57036 0.40318,1.26304 0.54911,2.58677 0.55679,3.91197 -5.57998,-1.68544 -11.53613,-2.20181 -17.32309,-1.45918 -4.42929,0.60484 -8.88159,2.29651 -12.02391,5.54876 -2.08979,2.14448 -3.29065,5.01501 -3.66141,7.96955 -0.52631,3.87767 0.0425,8.05484 2.26462,11.33351 2.27204,3.38087 6.01529,5.53025 9.91194,6.52317 4.19267,1.02959 8.6855,0.91741 12.80486,-0.36961 2.96459,-0.95074 5.72791,-2.58849 7.9022,-4.81435 0.0766,1.76373 1.03177,3.47898 2.58478,4.34874 2.64212,1.63173 6.53184,1.23086 8.50611,-1.25946 1.0733,-1.28421 1.44668,-3.00998 1.32068,-4.65648 -0.0414,-8.55563 0.0984,-17.11362 -0.0782,-25.66766 -0.30897,-4.77527 -1.91392,-9.65623 -5.37791,-13.072 -3.1481,-3.19698 -7.57276,-4.86982 -11.98583,-5.36724 -1.72219,-0.22084 -3.4643,-0.29211 -5.20077,-0.276 z m -298.86037,0.072 c -2.81966,0.0649 -5.48646,2.23442 -5.90156,5.05917 -0.33517,1.8253 0.29716,3.66899 1.12451,5.27506 5.82198,12.96351 11.61121,25.94169 17.42016,38.91104 -0.7734,2.03923 -2.02133,4.12203 -4.11357,4.99194 -2.1815,0.82105 -4.5514,0.18512 -6.69381,-0.43314 -1.68064,-0.44493 -3.57988,-0.1436 -4.9245,0.98998 -1.34303,1.08397 -2.02963,2.84154 -1.89945,4.55505 0.097,1.97819 1.33208,3.91886 3.21943,4.61768 3.08723,1.41108 6.54828,1.87334 9.92633,1.74955 3.55724,-0.16811 7.14501,-1.413 9.68682,-3.96484 3.16946,-3.06187 5.02922,-7.16283 6.72846,-11.16948 5.78905,-14.02731 11.73264,-27.99242 17.47249,-42.04046 0.72517,-2.22926 0.45333,-4.97873 -1.30799,-6.64556 -1.86729,-1.985 -5.1562,-2.53567 -7.49034,-1.05119 -1.42188,0.84838 -2.39845,2.27252 -2.94637,3.81611 -1.0534,2.61922 -1.96276,5.29576 -2.99919,7.91745 -2.84052,7.55114 -5.68103,15.10227 -8.52155,22.65341 -4.31842,-10.61227 -8.53081,-21.27106 -12.94311,-31.84299 -1.07622,-2.00923 -3.2382,-3.47476 -5.57037,-3.38878 -0.0888,-0.003 -0.17757,-0.003 -0.26639,0 z m 375.82305,10.19274 c 3.3298,-0.005 6.71972,1.55502 8.59194,4.36316 1.47061,2.02722 2.3285,4.44507 2.66157,6.91676 -7.73593,-0.01 -15.47192,0.0186 -23.20783,-0.0144 0.67509,-4.12533 2.97212,-8.18798 6.78955,-10.13034 1.5938,-0.81157 3.38214,-1.15352 5.16477,-1.13519 z m -244.911141,0.005 c 3.377645,-0.0164 6.803039,1.61237 8.661552,4.47836 1.420601,2.00284 2.250009,4.37679 2.575182,6.79676 -7.731846,-0.011 -15.496678,0.0241 -23.207849,-0.0192 0.629946,-3.82291 2.648901,-7.58697 5.990361,-9.68394 1.78634,-1.10911 3.88715,-1.61099 5.980754,-1.57199 z M 195.25268,917.6392 c 3.48981,0.002 6.99387,0.49855 10.27433,1.6968 0.005,2.41431 0.22124,5.0356 -1.12799,7.16394 -1.7942,3.0016 -5.18345,4.68521 -8.57283,5.08935 -3.09861,0.42161 -6.52736,0.17904 -9.09825,-1.77977 -1.71941,-1.36476 -2.43752,-3.70168 -2.08079,-5.83676 0.25042,-1.85625 1.36594,-3.55848 2.98731,-4.48943 2.24361,-1.45997 4.98802,-1.83685 7.61822,-1.84413 z"
         style="font-size:1199.04626465px;font-style:normal;font-variant:normal;font-weight:normal;font-stretch:normal;line-height:125%;letter-spacing:-100px;word-spacing:0px;fill:#0e458a;fill-opacity:1;stroke:none;font-family:Gotham Rounded;-inkscape-font-specification:Gotham Rounded" />
    </g>
  </g>
</svg>
