<?xml version="1.0" encoding="UTF-8" standalone="no"?>
<!-- Created with Inkscape (http://www.inkscape.org/) -->

<svg
   xmlns:dc="http://purl.org/dc/elements/1.1/"
   xmlns:cc="http://creativecommons.org/ns#"
   xmlns:rdf="http://www.w3.org/1999/02/22-rdf-syntax-ns#"
   xmlns:svg="http://www.w3.org/2000/svg"
   xmlns="http://www.w3.org/2000/svg"
   xmlns:sodipodi="http://sodipodi.sourceforge.net/DTD/sodipodi-0.dtd"
   xmlns:inkscape="http://www.inkscape.org/namespaces/inkscape"
   width="40"
   height="40"
   id="svg2"
   version="1.1"
   inkscape:version="0.48.0 r9654"
   sodipodi:docname="ic_title_search_default.svg">
  <defs
     id="defs4" />
  <sodipodi:namedview
     id="base"
     pagecolor="#ffffff"
     bordercolor="#666666"
     borderopacity="1.0"
     inkscape:pageopacity="0.0"
     inkscape:pageshadow="2"
     inkscape:zoom="8"
     inkscape:cx="-21.715635"
     inkscape:cy="26.323185"
     inkscape:document-units="px"
     inkscape:current-layer="layer1"
     showgrid="false"
     inkscape:window-width="1440"
     inkscape:window-height="825"
     inkscape:window-x="0"
     inkscape:window-y="24"
     inkscape:window-maximized="1"
     showguides="true"
     inkscape:guide-bbox="true" />
  <metadata
     id="metadata7">
    <rdf:RDF>
      <cc:Work
         rdf:about="">
        <dc:format>image/svg+xml</dc:format>
        <dc:type
           rdf:resource="http://purl.org/dc/dcmitype/StillImage" />
        <dc:title />
      </cc:Work>
    </rdf:RDF>
  </metadata>
  <g
     inkscape:label="Layer 1"
     inkscape:groupmode="layer"
     id="layer1"
     transform="translate(0,-1012.3622)">
    <path
       style="fill:#ffffff;fill-opacity:1;stroke:none"
       d="m 16.146256,1018.0855 c -5.838717,0 -10.5624989,4.5611 -10.5624989,10.1875 0,5.6264 4.7237819,10.1875 10.5624989,10.1875 5.838718,0 10.5625,-4.5611 10.5625,-10.1875 0,-5.6264 -4.723782,-10.1875 -10.5625,-10.1875 z m 0,2.875 c 4.038582,0 7.3125,3.2739 7.3125,7.3125 0,4.0386 -3.273918,7.3125 -7.3125,7.3125 -4.038581,0 -7.3124989,-3.2739 -7.3124989,-7.3125 0,-4.0386 3.2739179,-7.3125 7.3124989,-7.3125 z"
       id="path3983"
       inkscape:connector-curvature="0" />
    <rect
       style="fill:#ffffff;fill-opacity:1;stroke:none"
       id="rect3988"
       width="16"
       height="3.1875"
       x="746.03198"
       y="714.15576"
       transform="matrix(0.70710678,0.70710678,-0.70710678,0.70710678,0,0)" />
    <rect
       style="fill:#ffffff;fill-opacity:1;stroke:none"
       id="rect3990"
       width="12.5"
       height="5.75"
       x="750.15698"
       y="712.87451"
       ry="1.9"
       transform="matrix(0.70710678,0.70710678,-0.70710678,0.70710678,0,0)" />
  </g>
</svg>
